<svg width="100" height="33" viewBox="0 0 100 33" fill="none" xmlns="http://www.w3.org/2000/svg">
    <path d="M42.5551 16.6664C42.5551 21.1775 38.8823 24.5017 34.375 24.5017C29.8676 24.5017 26.1948 21.1775 26.1948 16.6664C26.1948 12.1234 29.8676 8.83105 34.375 8.83105C38.8823 8.83105 42.5551 12.1234 42.5551 16.6664ZM38.9742 16.6664C38.9742 13.8474 36.8456 11.9186 34.375 11.9186C31.9044 11.9186 29.7757 13.8474 29.7757 16.6664C29.7757 19.4571 31.9044 21.4142 34.375 21.4142C36.8456 21.4142 38.9742 19.4536 38.9742 16.6664Z" fill="#EA4335"/>
    <path d="M60.2022 16.6664C60.2022 21.1775 56.5294 24.5017 52.0221 24.5017C47.5147 24.5017 43.8419 21.1775 43.8419 16.6664C43.8419 12.127 47.5147 8.83105 52.0221 8.83105C56.5294 8.83105 60.2022 12.1234 60.2022 16.6664ZM56.6213 16.6664C56.6213 13.8474 54.4927 11.9186 52.0221 11.9186C49.5515 11.9186 47.4228 13.8474 47.4228 16.6664C47.4228 19.4571 49.5515 21.4142 52.0221 21.4142C54.4927 21.4142 56.6213 19.4536 56.6213 16.6664Z" fill="#FBBC05"/>
    <path d="M77.114 9.30442V23.3713C77.114 29.1577 73.5625 31.521 69.364 31.521C65.4118 31.521 63.0331 28.9811 62.136 26.9039L65.2537 25.6569C65.8088 26.9321 67.1691 28.437 69.3603 28.437C72.0478 28.437 73.7133 26.8438 73.7133 23.8446V22.7177H73.5883C72.7868 23.668 71.2427 24.4982 69.2941 24.4982C65.2169 24.4982 61.4816 21.0857 61.4816 16.6946C61.4816 12.2718 65.2169 8.83105 69.2941 8.83105C71.239 8.83105 72.7831 9.66122 73.5883 10.5832H73.7133V9.30796H77.114V9.30442ZM73.9669 16.6946C73.9669 13.9357 72.0515 11.9186 69.614 11.9186C67.1434 11.9186 65.0735 13.9357 65.0735 16.6946C65.0735 19.4253 67.1434 21.4142 69.614 21.4142C72.0515 21.4142 73.9669 19.4253 73.9669 16.6946Z" fill="#4285F4"/>
    <path d="M82.7206 1.05957V24.0215H79.228V1.05957H82.7206Z" fill="#34A853"/>
    <path d="M96.331 19.2458L99.1104 21.0262C98.2133 22.3015 96.0516 24.4988 92.3163 24.4988C87.6839 24.4988 84.2244 21.058 84.2244 16.6634C84.2244 12.0039 87.7133 8.82812 91.9155 8.82812C96.1472 8.82812 98.217 12.064 98.8935 13.8126L99.2648 14.7029L88.3641 19.0409C89.1986 20.6129 90.4964 21.4148 92.3163 21.4148C94.1398 21.4148 95.4045 20.5529 96.331 19.2458ZM87.7758 16.4268L95.0626 13.5194C94.6619 12.5409 93.456 11.8591 92.0369 11.8591C90.217 11.8591 87.6839 13.4029 87.7758 16.4268Z" fill="#EA4335"/>
    <path d="M12.9744 14.6285V11.3043H24.6324C24.7464 11.8837 24.8052 12.569 24.8052 13.3109C24.8052 15.8049 24.0957 18.8888 21.8089 21.0861C19.5847 23.3117 16.7427 24.4986 12.978 24.4986C6.00009 24.4986 0.132446 19.0372 0.132446 12.3323C0.132446 5.62743 6.00009 0.166016 12.978 0.166016C16.8383 0.166016 19.5883 1.62145 21.6545 3.51846L19.2133 5.86411C17.7317 4.52879 15.7244 3.4902 12.9744 3.4902C7.87877 3.4902 3.89348 7.43612 3.89348 12.3323C3.89348 17.2285 7.87877 21.1744 12.9744 21.1744C16.2795 21.1744 18.1619 19.8992 19.3677 18.7405C20.3457 17.8008 20.9891 16.4584 21.2427 14.625L12.9744 14.6285Z" fill="#4285F4"/>
</svg>
