<svg width="40" height="40" viewBox="0 0 40 40" fill="none" xmlns="http://www.w3.org/2000/svg">
    <path d="M20 37.9163C10.1167 37.9163 2.08337 29.883 2.08337 19.9997C2.08337 10.1163 10.1167 2.08301 20 2.08301C29.8834 2.08301 37.9167 10.1163 37.9167 19.9997C37.9167 29.883 29.8834 37.9163 20 37.9163ZM20 4.58301C11.5 4.58301 4.58337 11.4997 4.58337 19.9997C4.58337 28.4997 11.5 35.4163 20 35.4163C28.5 35.4163 35.4167 28.4997 35.4167 19.9997C35.4167 11.4997 28.5 4.58301 20 4.58301Z" fill="white"/>
    <path d="M20 22.9163C19.3167 22.9163 18.75 22.3497 18.75 21.6663V13.333C18.75 12.6497 19.3167 12.083 20 12.083C20.6833 12.083 21.25 12.6497 21.25 13.333V21.6663C21.25 22.3497 20.6833 22.9163 20 22.9163Z" fill="white"/>
    <path d="M20 28.3338C19.7834 28.3338 19.5667 28.2838 19.3667 28.2005C19.1667 28.1171 18.9834 28.0005 18.8167 27.8505C18.6667 27.6838 18.55 27.5171 18.4667 27.3005C18.3834 27.1005 18.3334 26.8838 18.3334 26.6671C18.3334 26.4505 18.3834 26.2338 18.4667 26.0338C18.55 25.8338 18.6667 25.6505 18.8167 25.4838C18.9834 25.3338 19.1667 25.2171 19.3667 25.1338C19.7667 24.9671 20.2334 24.9671 20.6334 25.1338C20.8334 25.2171 21.0167 25.3338 21.1834 25.4838C21.3334 25.6505 21.45 25.8338 21.5334 26.0338C21.6167 26.2338 21.6667 26.4505 21.6667 26.6671C21.6667 26.8838 21.6167 27.1005 21.5334 27.3005C21.45 27.5171 21.3334 27.6838 21.1834 27.8505C21.0167 28.0005 20.8334 28.1171 20.6334 28.2005C20.4334 28.2838 20.2167 28.3338 20 28.3338Z" fill="white"/>
</svg>
