<svg xmlns="http://www.w3.org/2000/svg" width="24" height="24" viewBox="0 0 24 24" fill="none">
    <path d="M3.45833 5H20.5417C21.3467 5 22 5.6272 22 6.4V17.6C22 17.9713 21.8464 18.3274 21.5729 18.5899C21.2994 18.8525 20.9284 19 20.5417 19H3.45833C3.07156 19 2.70063 18.8525 2.42714 18.5899C2.15365 18.3274 2 17.9713 2 17.6V6.4C2 5.6272 2.65333 5 3.45833 5ZM3.25 8.5296V17.6C3.25 17.7104 3.34333 17.8 3.45833 17.8H20.5417C20.5969 17.8 20.6499 17.7789 20.689 17.7414C20.7281 17.7039 20.75 17.653 20.75 17.6V8.5296L12.8167 13.676C12.3233 13.996 11.6767 13.996 11.1833 13.676L3.25 8.5296ZM3.25 6.4V7.0816L11.8833 12.6816C11.9178 12.704 11.9584 12.7159 12 12.7159C12.0416 12.7159 12.0822 12.704 12.1167 12.6816L20.75 7.0816V6.4C20.75 6.34696 20.7281 6.29609 20.689 6.25858C20.6499 6.22107 20.5969 6.2 20.5417 6.2H3.45833C3.40308 6.2 3.35009 6.22107 3.31102 6.25858C3.27195 6.29609 3.25 6.34696 3.25 6.4Z" fill="white"/>
</svg>