<svg width="57" height="57" viewBox="0 0 57 57" fill="none" xmlns="http://www.w3.org/2000/svg">
    <path d="M20.8743 55.4595H20.8635C20.7124 55.4574 20.5651 55.4108 20.4402 55.3256C20.3153 55.2404 20.2182 55.1204 20.1611 54.9804L17.68 48.9029L11.7166 51.6243C11.5745 51.6892 11.416 51.7093 11.2621 51.6821C11.1083 51.6548 10.9664 51.5814 10.8553 51.4716C10.7441 51.3618 10.669 51.2208 10.6399 51.0673C10.6107 50.9138 10.6289 50.7551 10.6921 50.6122L17.1847 35.9223C17.2674 35.7354 17.4209 35.589 17.6115 35.5152C17.8021 35.4415 18.0142 35.4465 18.2011 35.5291C18.388 35.6118 18.5345 35.7653 18.6082 35.9559C18.682 36.1465 18.677 36.3586 18.5943 36.5455L12.9221 49.3813L17.7748 47.1683C17.8692 47.1252 17.9713 47.1016 18.0751 47.099C18.1789 47.0964 18.2821 47.1148 18.3785 47.1531C18.475 47.1913 18.5628 47.2487 18.6365 47.3218C18.7103 47.3948 18.7685 47.482 18.8077 47.5781L20.9067 52.7181L26.9918 38.9187C27.0742 38.7318 27.2276 38.5852 27.418 38.5114C27.6085 38.4375 27.8205 38.4423 28.0074 38.5247C28.1943 38.6071 28.3409 38.7604 28.4147 38.9509C28.4886 39.1414 28.4838 39.3534 28.4014 39.5403L21.5814 54.9973C21.5214 55.1349 21.4225 55.2519 21.2969 55.334C21.1713 55.4161 21.0244 55.4597 20.8743 55.4595Z" fill="#E94E1B"/>
    <path d="M23.9554 41.1602C23.7066 41.1613 23.4587 41.1294 23.2183 41.0654C22.0682 40.7573 21.2995 39.756 20.6209 38.8701C20.2496 38.3036 19.7801 37.808 19.2344 37.4066C18.6015 37.1253 17.9231 36.9599 17.2317 36.9183C16.084 36.7642 14.897 36.6055 14.0736 35.7806C13.2502 34.9556 13.0884 33.7671 12.9351 32.6186C12.8924 31.9286 12.727 31.2518 12.4468 30.6198C12.0448 30.0747 11.5493 29.6052 10.9833 29.2333C10.0975 28.5547 9.09458 27.786 8.78724 26.6367C8.49223 25.5329 8.9413 24.4376 9.37881 23.3792C9.69503 22.7451 9.89438 22.0591 9.9673 21.3542C9.89427 20.6496 9.69493 19.9639 9.37881 19.3299C8.94284 18.2716 8.49223 17.1732 8.78724 16.0725C9.09535 14.9232 10.0967 14.1545 10.9833 13.4759C11.5499 13.1028 12.0454 12.6317 12.4468 12.0848C12.7272 11.4531 12.8923 10.7765 12.9344 10.0867C13.0884 8.93821 13.2425 7.75122 14.0728 6.92857C14.9032 6.10593 16.0856 5.94417 17.2309 5.79011C17.9224 5.74853 18.6007 5.58312 19.2336 5.30176C19.779 4.90008 20.2485 4.40451 20.6201 3.83825C21.298 2.95244 22.0675 1.94955 23.2167 1.64221C24.3205 1.34411 25.4158 1.79626 26.4742 2.23378C27.1092 2.54712 27.7954 2.74359 28.5 2.81379C29.2048 2.74109 29.8908 2.542 30.525 2.22607C31.5834 1.7901 32.6818 1.33872 33.7817 1.63374C34.9318 1.94184 35.7005 2.9432 36.3791 3.82978C36.7506 4.39612 37.2201 4.89171 37.7656 5.29329C38.3973 5.57429 39.0743 5.73944 39.7644 5.78087C40.9121 5.93493 42.0991 6.0936 42.9225 6.91933C43.746 7.74506 43.9077 8.93282 44.061 10.0774C44.1032 10.7688 44.2686 11.447 44.5493 12.0801C44.9509 12.6256 45.4465 13.0951 46.0129 13.4666C46.8987 14.1452 47.9016 14.9147 48.2089 16.0632C48.5039 17.1678 48.0548 18.2623 47.6173 19.3215C47.3012 19.9554 47.1019 20.6411 47.0288 21.3457C47.1017 22.0504 47.301 22.7361 47.6173 23.37C48.0533 24.4291 48.5039 25.5268 48.2089 26.6282C47.9008 27.7767 46.8994 28.5462 46.0129 29.2248C45.4465 29.5964 44.9509 30.0659 44.5493 30.6113C44.2692 31.243 44.104 31.9196 44.0618 32.6094C43.9077 33.7579 43.7498 34.9456 42.9233 35.7713C42.0968 36.5971 40.9106 36.7557 39.7652 36.909C39.075 36.9513 38.398 37.1169 37.7663 37.3982C37.221 37.7998 36.7515 38.2954 36.3799 38.8617C35.702 39.7467 34.9325 40.7504 33.7833 41.0577C32.6779 41.3543 31.5842 40.9037 30.5258 40.4661C29.891 40.1525 29.2047 39.956 28.5 39.8861C27.7951 39.9585 27.1091 40.1576 26.475 40.4738C25.687 40.8623 24.8315 41.0953 23.9554 41.1602ZM23.9554 3.08107C23.8408 3.08009 23.7267 3.09407 23.6157 3.12267C22.9725 3.29444 22.4241 4.01002 21.8441 4.7672C21.3558 5.49931 20.7304 6.12995 20.0024 6.62432C19.199 7.01538 18.3274 7.24688 17.4358 7.30601C16.6251 7.31338 15.8341 7.55697 15.1597 8.00695C14.7092 8.68113 14.4655 9.47228 14.4587 10.2831C14.3996 11.1743 14.1684 12.0456 13.7778 12.8489C13.2822 13.5772 12.6502 14.2026 11.9168 14.6906C11.1597 15.2714 10.4449 15.8198 10.2723 16.4622C10.2262 17.2548 10.4094 18.044 10.8 18.7353C11.202 19.5518 11.4414 20.4386 11.5048 21.3465C11.4416 22.2544 11.2022 23.1413 10.8 23.9577C10.4091 24.6492 10.2259 25.4386 10.2723 26.2315C10.4449 26.8747 11.1597 27.4224 11.9168 28.0032C12.6502 28.4912 13.2822 29.1166 13.7778 29.8449C14.1687 30.648 14.4 31.5194 14.4587 32.4107C14.4665 33.2217 14.7103 34.0129 15.1605 34.6876C15.8349 35.1374 16.6259 35.3807 17.4366 35.3878C18.3279 35.4469 19.1993 35.6784 20.0024 36.0694C20.731 36.5644 21.3562 37.1965 21.8433 37.9304C22.4241 38.6868 22.9725 39.4024 23.6149 39.5742C24.4073 39.6192 25.1959 39.4361 25.8872 39.0465C26.7045 38.6457 27.5919 38.4077 28.5 38.3456C29.4081 38.4087 30.2952 38.6478 31.112 39.0496C31.8029 39.441 32.5923 39.6243 33.3851 39.5773C34.0282 39.4055 34.5767 38.6899 35.1567 37.9327C35.6442 37.1994 36.2694 36.5677 36.9976 36.0725C37.801 35.6812 38.6726 35.4494 39.5642 35.3901C40.3749 35.3835 41.166 35.1401 41.8403 34.6899C42.2905 34.0156 42.5341 33.2245 42.5413 32.4137C42.6003 31.5225 42.8315 30.6512 43.2222 29.848C43.7175 29.1193 44.3495 28.4936 45.0831 28.0055C45.8403 27.4247 46.5551 26.877 46.7277 26.2339C46.7738 25.4412 46.5906 24.6521 46.2 23.9608C45.7978 23.1444 45.5584 22.2575 45.4952 21.3496C45.5586 20.4417 45.798 19.5548 46.2 18.7384C46.591 18.0472 46.7742 17.258 46.7277 16.4653C46.5551 15.8221 45.8403 15.2745 45.0831 14.6937C44.3497 14.2057 43.7178 13.5802 43.2222 12.852C42.8314 12.0488 42.6001 11.1774 42.5413 10.2862C42.5337 9.47513 42.2898 8.68388 41.8395 8.00926C41.1653 7.55902 40.3741 7.31566 39.5634 7.30909C38.6719 7.24863 37.8006 7.01609 36.9976 6.62432C36.2694 6.1289 35.6442 5.49689 35.1567 4.76334C34.5759 4.00617 34.0275 3.29136 33.3851 3.11882C32.5926 3.07324 31.8038 3.25667 31.1128 3.64722C30.2958 4.04981 29.4085 4.28996 28.5 4.35433C27.592 4.29082 26.7049 4.05173 25.888 3.6503C25.2823 3.34839 24.6281 3.1557 23.9554 3.08107Z" fill="#E94E1B"/>
    <path d="M28.5 34.4958C25.8999 34.4959 23.3581 33.725 21.1962 32.2806C19.0342 30.8362 17.3491 28.7831 16.354 26.3809C15.3588 23.9788 15.0984 21.3355 15.6055 18.7854C16.1127 16.2352 17.3647 13.8927 19.2032 12.0541C21.0417 10.2155 23.3841 8.96334 25.9343 8.45603C28.4844 7.94872 31.1277 8.20901 33.5299 9.204C35.9321 10.199 37.9853 11.884 39.4298 14.0459C40.8744 16.2078 41.6454 18.7495 41.6454 21.3496C41.6416 24.8348 40.2554 28.1763 37.791 30.6408C35.3266 33.1053 31.9853 34.4917 28.5 34.4958ZM28.5 9.74469C26.2046 9.74453 23.9606 10.4251 22.052 11.7003C20.1433 12.9755 18.6556 14.788 17.7771 16.9087C16.8986 19.0294 16.6688 21.363 17.1165 23.6143C17.5643 25.8657 18.6697 27.9337 20.2928 29.5568C21.9159 31.1799 23.9839 32.2853 26.2353 32.733C28.4866 33.1808 30.8202 32.9509 32.9409 32.0724C35.0616 31.1939 36.8741 29.7063 38.1493 27.7976C39.4245 25.889 40.1051 23.645 40.1049 21.3496C40.1014 18.2728 38.8777 15.3231 36.7021 13.1475C34.5265 10.9719 31.5768 9.74815 28.5 9.74469Z" fill="#E94E1B"/>
    <path d="M36.1257 55.4595C35.976 55.4592 35.8296 55.4154 35.7045 55.3333C35.5793 55.2513 35.4807 55.1345 35.4209 54.9973L28.5994 39.5403C28.5169 39.3534 28.5121 39.1414 28.586 38.9509C28.6599 38.7604 28.8064 38.6071 28.9934 38.5247C29.1803 38.4423 29.3923 38.4375 29.5828 38.5114C29.7732 38.5852 29.9265 38.7318 30.009 38.9187L36.0941 52.7181L38.1931 47.5781C38.2323 47.482 38.2905 47.3948 38.3643 47.3218C38.438 47.2487 38.5257 47.1913 38.6222 47.1531C38.7187 47.1148 38.8219 47.0964 38.9257 47.099C39.0294 47.1016 39.1316 47.1252 39.226 47.1683L44.0787 49.3813L38.4057 36.5455C38.3648 36.4529 38.3425 36.3532 38.3401 36.2521C38.3377 36.1509 38.3553 36.0502 38.3918 35.9559C38.4283 35.8615 38.483 35.7752 38.5529 35.702C38.6228 35.6288 38.7063 35.57 38.7989 35.5291C38.8914 35.4882 38.9912 35.4659 39.0923 35.4635C39.1935 35.4611 39.2941 35.4787 39.3885 35.5152C39.4829 35.5517 39.5692 35.6065 39.6424 35.6763C39.7156 35.7462 39.7743 35.8298 39.8153 35.9223L46.3056 50.6122C46.3687 50.7551 46.387 50.9138 46.3578 51.0673C46.3287 51.2208 46.2536 51.3618 46.1424 51.4716C46.0313 51.5814 45.8894 51.6548 45.7356 51.6821C45.5817 51.7093 45.4232 51.6892 45.2811 51.6243L39.3177 48.9029L36.8366 54.9804C36.7795 55.1204 36.6824 55.2404 36.5575 55.3256C36.4326 55.4108 36.2853 55.4574 36.1341 55.4595H36.1257Z" fill="#E94E1B"/>
    <path d="M32.7134 28.2111C32.5886 28.2113 32.4656 28.1808 32.3552 28.1226L28.5 26.096L24.6486 28.1226C24.5215 28.1892 24.3782 28.219 24.235 28.2086C24.0917 28.1981 23.9543 28.1478 23.8381 28.0634C23.722 27.979 23.6317 27.8637 23.5776 27.7307C23.5235 27.5977 23.5076 27.4523 23.5318 27.3107L24.2681 23.0188L21.1493 19.9785C21.0463 19.8781 20.9735 19.751 20.939 19.6113C20.9045 19.4717 20.9099 19.3252 20.9544 19.1885C20.9988 19.0517 21.0807 18.9302 21.1907 18.8376C21.3007 18.7449 21.4345 18.685 21.5768 18.6644L25.8865 18.039L27.8121 14.1337C27.8831 14.0138 27.984 13.9144 28.105 13.8454C28.2261 13.7764 28.363 13.7401 28.5023 13.7401C28.6416 13.7401 28.7786 13.7764 28.8996 13.8454C29.0206 13.9144 29.1215 14.0138 29.1925 14.1337L31.1181 18.039L35.4278 18.6644C35.5701 18.685 35.7039 18.7449 35.8139 18.8376C35.9239 18.9302 36.0058 19.0517 36.0503 19.1885C36.0948 19.3252 36.1001 19.4717 36.0656 19.6113C36.0312 19.751 35.9583 19.8781 35.8553 19.9785L32.7365 23.0188L33.4729 27.3107C33.4918 27.4212 33.4864 27.5345 33.457 27.6428C33.4276 27.751 33.375 27.8515 33.3027 27.9372C33.2305 28.023 33.1404 28.0919 33.0387 28.1392C32.937 28.1865 32.8255 28.2111 32.7134 28.2111ZM28.5 24.4561C28.6247 24.4559 28.7477 24.486 28.8582 24.5439L31.6905 26.0351L31.1513 22.8824C31.1302 22.7593 31.1394 22.6329 31.1781 22.5142C31.2167 22.3954 31.2836 22.2879 31.3731 22.2007L33.6631 19.9669L30.4981 19.5048C30.3744 19.4868 30.257 19.4389 30.1559 19.3654C30.0549 19.2918 29.9732 19.1948 29.9181 19.0827L28.5 16.215L27.0842 19.0834C27.0291 19.1956 26.9474 19.2926 26.8464 19.3661C26.7453 19.4397 26.6279 19.4875 26.5042 19.5056L23.3392 19.9677L25.6292 22.2015C25.7187 22.2886 25.7856 22.3962 25.8243 22.515C25.8629 22.6337 25.8721 22.7601 25.851 22.8832L25.3119 26.0359L28.1441 24.547C28.2537 24.4884 28.3758 24.4572 28.5 24.4561Z" fill="#E94E1B"/>
</svg>
