<svg width="120" height="120" viewBox="0 0 120 120" fill="none" xmlns="http://www.w3.org/2000/svg">
<g id="solar:document-outline">
<path id="Vector" fill-rule="evenodd" clip-rule="evenodd" d="M54.72 6.25H65.28C74.47 6.25 81.75 6.25 87.445 7.015C93.305 7.805 98.05 9.465 101.795 13.205C105.535 16.95 107.195 21.695 107.985 27.555C108.75 33.255 108.75 40.53 108.75 49.72V70.28C108.75 79.47 108.75 86.75 107.985 92.445C107.195 98.305 105.535 103.05 101.795 106.795C98.05 110.535 93.305 112.195 87.445 112.985C81.745 113.75 74.47 113.75 65.28 113.75H54.72C45.53 113.75 38.25 113.75 32.555 112.985C26.695 112.195 21.95 110.535 18.205 106.795C14.465 103.05 12.805 98.305 12.015 92.445C11.25 86.745 11.25 79.47 11.25 70.28V49.72C11.25 40.53 11.25 33.25 12.015 27.555C12.805 21.695 14.465 16.95 18.205 13.205C21.95 9.465 26.695 7.805 32.555 7.015C38.255 6.25 45.53 6.25 54.72 6.25ZM33.55 14.45C28.52 15.125 25.62 16.395 23.5 18.51C21.39 20.625 20.12 23.525 19.445 28.555C18.755 33.695 18.745 40.465 18.745 50V70C18.745 79.535 18.755 86.31 19.445 91.45C20.12 96.475 21.39 99.375 23.505 101.49C25.62 103.605 28.52 104.875 33.55 105.55C38.69 106.24 45.46 106.25 54.995 106.25H64.995C74.53 106.25 81.305 106.24 86.445 105.55C91.47 104.875 94.37 103.605 96.485 101.49C98.6 99.375 99.87 96.475 100.545 91.445C101.235 86.31 101.245 79.535 101.245 70V50C101.245 40.465 101.235 33.695 100.545 28.55C99.87 23.525 98.6 20.625 96.485 18.51C94.37 16.395 91.47 15.125 86.44 14.45C81.305 13.76 74.53 13.75 64.995 13.75H54.995C45.46 13.75 38.695 13.76 33.55 14.45ZM36.25 50C36.25 49.0054 36.6451 48.0516 37.3483 47.3484C38.0516 46.6451 39.0054 46.25 40 46.25H80C80.9946 46.25 81.9484 46.6451 82.6517 47.3484C83.3549 48.0516 83.75 49.0054 83.75 50C83.75 50.9946 83.3549 51.9484 82.6517 52.6516C81.9484 53.3549 80.9946 53.75 80 53.75H40C39.0054 53.75 38.0516 53.3549 37.3483 52.6516C36.6451 51.9484 36.25 50.9946 36.25 50ZM36.25 70C36.25 69.0054 36.6451 68.0516 37.3483 67.3484C38.0516 66.6451 39.0054 66.25 40 66.25H65C65.9946 66.25 66.9484 66.6451 67.6516 67.3484C68.3549 68.0516 68.75 69.0054 68.75 70C68.75 70.9946 68.3549 71.9484 67.6516 72.6516C66.9484 73.3549 65.9946 73.75 65 73.75H40C39.0054 73.75 38.0516 73.3549 37.3483 72.6516C36.6451 71.9484 36.25 70.9946 36.25 70Z" fill="#EDC50D"/>
</g>
</svg>
