<svg width="26" height="26" viewBox="0 0 26 26" fill="none" xmlns="http://www.w3.org/2000/svg">
    <path d="M13.0001 24.6459C9.91141 24.6459 6.94925 23.4189 4.76523 21.2349C2.58122 19.0509 1.35425 16.0887 1.35425 13C1.35425 9.91136 2.58122 6.94919 4.76523 4.76517C6.94925 2.58116 9.91141 1.35419 13.0001 1.35419C14.815 1.34818 16.6051 1.77528 18.2217 2.60002C18.3171 2.64839 18.4019 2.71506 18.4715 2.79623C18.541 2.87739 18.5939 2.97146 18.6271 3.07306C18.6603 3.17467 18.6732 3.28181 18.665 3.38839C18.6567 3.49496 18.6276 3.59887 18.5792 3.69419C18.5309 3.78951 18.4642 3.87436 18.383 3.94392C18.3019 4.01347 18.2078 4.06635 18.1062 4.09955C18.0046 4.13274 17.8975 4.1456 17.7909 4.13739C17.6843 4.12918 17.5804 4.10006 17.4851 4.05169C16.0983 3.33694 14.5602 2.96543 13.0001 2.96836C11.0186 2.96836 9.08161 3.5558 7.43393 4.65642C5.78625 5.75705 4.50185 7.32145 3.74308 9.15188C2.98431 10.9823 2.78523 12.9966 3.17101 14.9402C3.55679 16.8837 4.51011 18.6693 5.91046 20.0712C7.31082 21.473 9.09534 22.4283 11.0385 22.8162C12.9816 23.204 14.9961 23.0071 16.8274 22.2503C18.6586 21.4935 20.2244 20.2108 21.3268 18.5643C22.4292 16.9179 23.0188 14.9815 23.0209 13C23.0266 12.9098 23.0266 12.8194 23.0209 12.7292C23.0008 12.5137 23.0671 12.299 23.2053 12.1325C23.3434 11.9659 23.5421 11.861 23.7576 11.8409C23.9731 11.8207 24.1877 11.8871 24.3543 12.0252C24.5209 12.1634 24.6258 12.362 24.6459 12.5775V13C24.643 16.0878 23.4152 19.0483 21.2318 21.2317C19.0484 23.4151 16.0879 24.643 13.0001 24.6459Z" fill="#E94E1B"/>
    <path d="M12.8052 16.6942C12.6999 16.6957 12.5954 16.6754 12.4984 16.6343C12.4014 16.5933 12.314 16.5325 12.2418 16.4558L7.00935 11.3208C6.85719 11.1685 6.77173 10.962 6.77173 10.7467C6.77173 10.5314 6.85719 10.3248 7.00935 10.1725C7.16488 10.0222 7.37268 9.93826 7.58893 9.93826C7.80518 9.93826 8.01298 10.0222 8.16851 10.1725L12.816 14.755L23.2702 4.47417C23.4257 4.32391 23.6335 4.23993 23.8498 4.23993C24.066 4.23993 24.2738 4.32391 24.4293 4.47417C24.5815 4.62651 24.667 4.83302 24.667 5.04833C24.667 5.26364 24.5815 5.47015 24.4293 5.6225L13.401 16.4558C13.3235 16.5345 13.2305 16.5962 13.128 16.6372C13.0255 16.6782 12.9156 16.6976 12.8052 16.6942Z" fill="#E94E1B"/>
</svg>
