<svg width="35" height="32" viewBox="0 0 35 32" fill="none" xmlns="http://www.w3.org/2000/svg">
    <path d="M13.3636 25.0602C13.3636 23.004 12.7273 21.3762 11.4545 20.1767C10.6879 19.4026 9.78268 18.8616 8.73892 18.5538L13.1091 0H7L1.65455 17.7349C1.2303 18.9344 0.890909 19.9625 0.636363 20.8193C0.381818 21.676 0.212121 22.4043 0.127273 23.004C0.0424242 23.6037 0 24.2892 0 25.0602C0 27.0308 0.593939 28.7015 1.78182 30.0723C3.05455 31.3574 4.70909 32 6.74545 32C8.61212 32 10.1818 31.3574 11.4545 30.0723C12.7273 28.7872 13.3636 27.1165 13.3636 25.0602Z" fill="#E94E1B"/>
    <path d="M35 25.0602C35 23.004 34.3636 21.3762 33.0909 20.1767C32.3242 19.4026 31.419 18.8616 30.3753 18.5538L34.7455 0H28.6364L23.2909 17.7349C22.8667 18.9344 22.5273 19.9625 22.2727 20.8193C22.0182 21.676 21.8485 22.4043 21.7636 23.004C21.6788 23.6037 21.6364 24.2892 21.6364 25.0602C21.6364 27.0308 22.2303 28.7015 23.4182 30.0723C24.6909 31.3574 26.3455 32 28.3818 32C30.2485 32 31.8182 31.3574 33.0909 30.0723C34.3636 28.7872 35 27.1165 35 25.0602Z" fill="#E94E1B"/>
</svg>
