<svg width="24" height="24" viewBox="0 0 24 24" fill="none" xmlns="http://www.w3.org/2000/svg">
    <path d="M21.1381 22L13.4936 14.3564C12.8832 14.8764 12.1813 15.2788 11.3878 15.5636C10.5943 15.8484 9.7967 15.9908 8.99506 15.9908C7.04018 15.9908 5.38562 15.3142 4.03137 13.9609C2.67712 12.6069 2 10.9529 2 8.99909C2 7.04527 2.67631 5.3905 4.02893 4.03479C5.38237 2.67826 7.03612 2 8.99017 2C10.945 2 12.6004 2.67704 13.9563 4.03113C15.3122 5.38521 15.9901 7.03998 15.9901 8.99542C15.9901 9.84335 15.84 10.664 15.5396 11.4574C15.2385 12.2508 14.8438 12.9295 14.3555 13.4934L22 21.1358L21.1381 22ZM8.99506 14.769C10.6146 14.769 11.9823 14.2116 13.0981 13.0967C14.2131 11.9819 14.7706 10.6144 14.7706 8.9942C14.7706 7.37483 14.2131 6.00773 13.0981 4.89289C11.9831 3.77805 10.6158 3.22063 8.99628 3.22063C7.37671 3.22063 6.00903 3.77805 4.89324 4.89289C3.77827 6.00773 3.22078 7.37483 3.22078 8.9942C3.22078 10.6136 3.77827 11.9807 4.89324 13.0955C6.00822 14.2104 7.37549 14.769 8.99506 14.769Z" fill="white"/>
</svg>
