<svg width="55" height="55" viewBox="0 0 55 55" fill="none" xmlns="http://www.w3.org/2000/svg">
    <mask id="mask0_1_270" style="mask-type:luminance" maskUnits="userSpaceOnUse" x="0" y="0" width="55" height="55">
        <path d="M0 3.8147e-06H55V55H0V3.8147e-06Z" fill="white"/>
    </mask>
    <g mask="url(#mask0_1_270)">
        <path d="M10.1244 19.1254V24.6923C10.1244 28.827 11.1686 32.9323 13.1441 36.5645C15.1198 40.1966 17.9986 43.304 21.4696 45.5507L25.4932 48.1552C26.091 48.5422 26.7879 48.748 27.5 48.748C28.2121 48.748 28.9089 48.5422 29.5067 48.1553L33.5304 45.5508C37.0012 43.304 39.8801 40.1966 41.8558 36.5645C43.8313 32.9323 44.8756 28.827 44.8756 24.6923V12.4614C44.8756 12.18 44.6587 11.9428 44.3779 11.9259C40.7956 11.7088 37.7968 9.29167 36.7193 6.01166C36.6465 5.79037 36.4418 5.63965 36.2089 5.63965H18.7911C18.5582 5.63965 18.3533 5.79037 18.2807 6.01166C17.2031 9.29167 14.2044 11.7088 10.6221 11.9259C10.3413 11.9428 10.1244 12.18 10.1244 12.4614V15.3098" stroke="#E94E1B" stroke-width="2" stroke-miterlimit="10" stroke-linecap="round" stroke-linejoin="round"/>
        <path d="M49.7096 12.1645V9.14808C49.7096 8.02122 48.796 7.1077 47.6693 7.1077H44.9039C42.8174 7.1077 41.1258 5.41624 41.1258 3.32957V2.63187C41.1258 1.62328 40.3081 0.805694 39.2996 0.805694H15.7003C14.6919 0.805694 13.8742 1.62328 13.8742 2.63187V3.32957C13.8742 5.41624 12.1826 7.1077 10.096 7.1077H7.33067C6.20392 7.1077 5.29041 8.02122 5.29041 9.14808V24.6923C5.29041 34.7586 10.3924 44.1388 18.8429 49.6087L24.6065 53.3396C26.3672 54.4792 28.6329 54.4792 30.3935 53.3396L36.1571 49.6088C44.6076 44.1388 49.7096 34.7586 49.7096 24.6923V15.9543" stroke="#E94E1B" stroke-width="2" stroke-miterlimit="10" stroke-linecap="round" stroke-linejoin="round"/>
        <path d="M22.6724 25.7022L25.3583 27.9518C25.726 28.2598 26.2697 28.2286 26.5997 27.8805L32.3275 21.8385" stroke="#E94E1B" stroke-width="2" stroke-miterlimit="10" stroke-linecap="round" stroke-linejoin="round"/>
        <path d="M38.4803 25.0011C38.4803 31.0654 33.5643 35.9814 27.5 35.9814C21.4357 35.9814 16.5197 31.0654 16.5197 25.0011C16.5197 18.9368 21.4357 14.0207 27.5 14.0207C33.5643 14.0207 38.4803 18.9368 38.4803 25.0011Z" stroke="#E94E1B" stroke-width="2" stroke-miterlimit="10" stroke-linecap="round" stroke-linejoin="round"/>
    </g>
</svg>
