<svg width="26" height="26" viewBox="0 0 26 26" fill="none" xmlns="http://www.w3.org/2000/svg">
    <g clip-path="url(#clip0_1_339)">
        <path d="M13 26C20.1797 26 26 20.1797 26 13C26 5.8203 20.1797 0 13 0C5.8203 0 0 5.8203 0 13C0 20.1797 5.8203 26 13 26Z" fill="#29436C"/>
        <path d="M6.60531 11.5412L18.1342 7.05491C18.6693 6.85981 19.1366 7.18665 18.9632 8.00326L18.9642 8.00225L17.0012 17.3359C16.8558 17.9976 16.4662 18.1585 15.9211 17.8468L12.9318 15.6232L11.4899 17.0251C11.3305 17.186 11.1959 17.3218 10.887 17.3218L11.0993 14.2515L16.6395 9.20001C16.8807 8.9858 16.5857 8.86512 16.2679 9.07832L9.42127 13.4289L6.4698 12.4996C5.82908 12.2945 5.81513 11.853 6.60531 11.5412Z" fill="white"/>
    </g>
    <defs>
        <clipPath id="clip0_1_339">
            <rect width="26" height="26" fill="white"/>
        </clipPath>
    </defs>
</svg>
