<svg width="40" height="40" viewBox="0 0 40 40" fill="none" xmlns="http://www.w3.org/2000/svg">
<g id="whatsapp" clip-path="url(#clip0_291_3652)">
<g id="Layer 2">
<g id="08.whatsapp">
<path id="background" d="M20 40C31.0457 40 40 31.0457 40 20C40 8.95431 31.0457 0 20 0C8.95431 0 0 8.95431 0 20C0 31.0457 8.95431 40 20 40Z" fill="#2AA81A"/>
<g id="icon">
<path id="Vector" d="M27.0548 12.9449C25.3906 11.2619 23.1794 10.2292 20.8205 10.0335C18.4617 9.83778 16.1106 10.4919 14.1917 11.8776C12.2728 13.2634 10.9126 15.2896 10.3567 17.5904C9.80071 19.8911 10.0857 22.3148 11.1601 24.4239L10.1074 29.5344C10.0962 29.5855 10.0957 29.6383 10.1062 29.6895C10.1166 29.7407 10.1376 29.7892 10.168 29.8318C10.2114 29.8963 10.2735 29.9459 10.3459 29.9741C10.4183 30.0023 10.4976 30.0078 10.5732 29.9897L15.5732 28.8028C17.6765 29.8491 20.0828 30.115 22.3638 29.5534C24.6448 28.9917 26.6525 27.6389 28.0296 25.7357C29.4066 23.8324 30.0636 21.5023 29.8837 19.1601C29.7037 16.8179 28.6985 14.6155 27.0469 12.9449H27.0548ZM25.4916 25.4107C24.3407 26.5597 22.8585 27.319 21.2536 27.5819C19.6487 27.8449 18.0017 27.5982 16.5443 26.8765L15.8443 26.5292L12.7732 27.2555V27.216L13.4206 24.1186L13.0785 23.4449C12.3333 21.9836 12.0702 20.3237 12.3269 18.7034C12.5836 17.0832 13.347 15.586 14.5074 14.4265C15.9646 12.9709 17.9399 12.1533 19.9995 12.1533C22.0591 12.1533 24.0345 12.9709 25.4916 14.4265L25.5259 14.4739C26.964 15.9341 27.7669 17.9035 27.7595 19.9531C27.7521 22.0026 26.9351 23.9662 25.4864 25.416L25.4916 25.4107Z" fill="white"/>
<path id="Vector_2" d="M25.221 23.1582C24.8447 23.7503 24.2473 24.474 23.5026 24.6556C22.1868 24.9714 20.1841 24.6556 17.6762 22.3372L17.6447 22.3082C15.4631 20.2714 14.8841 18.574 15.0131 17.2293C15.0894 16.4635 15.7262 15.774 16.2631 15.3214C16.3484 15.2494 16.4494 15.1984 16.558 15.1725C16.6666 15.1465 16.7798 15.1463 16.8884 15.1719C16.9971 15.1974 17.0983 15.2481 17.1839 15.3197C17.2695 15.3914 17.3372 15.4821 17.3815 15.5846L18.1894 17.4109C18.2421 17.5284 18.2619 17.6581 18.2466 17.7861C18.2313 17.914 18.1815 18.0354 18.1026 18.1372L17.692 18.6635C17.6067 18.7728 17.5559 18.905 17.546 19.0432C17.5362 19.1815 17.5678 19.3196 17.6368 19.4398C18.0267 20.0146 18.4933 20.5334 19.0236 20.9819C19.5942 21.531 20.2412 21.9946 20.9447 22.3582C21.0731 22.41 21.2139 22.4223 21.3494 22.3938C21.4848 22.3652 21.6087 22.2969 21.7052 22.1977L22.1762 21.7188C22.2659 21.6224 22.3804 21.5527 22.5072 21.5174C22.634 21.4821 22.7681 21.4826 22.8947 21.5188L24.8157 22.0688C24.9246 22.0997 25.0246 22.1559 25.1077 22.2327C25.1909 22.3095 25.2547 22.4048 25.2942 22.5109C25.3336 22.617 25.3476 22.7308 25.3349 22.8433C25.3221 22.9558 25.2831 23.0637 25.221 23.1582Z" fill="white"/>
</g>
</g>
</g>
</g>
<defs>
<clipPath id="clip0_291_3652">
<rect width="40" height="40" fill="white"/>
</clipPath>
</defs>
</svg>
