<svg width="100" height="33" viewBox="0 0 100 33" fill="none" xmlns="http://www.w3.org/2000/svg">
    <g clip-path="url(#clip0_288_2797)">
        <path d="M95.4006 11.9253H99.9888C99.4085 7.4596 96.147 5.1123 91.6139 5.1123C87.0259 5.1123 83.9579 7.54552 83.9579 11.7249C83.9579 16.4768 87.9103 17.5358 90.0109 17.9654C92.7196 18.5092 95.373 18.5665 95.373 20.971C95.373 22.6027 94.0463 23.4042 92.1668 23.4042C89.8451 23.4042 88.2974 22.2019 87.9103 20.0265H83.3774C83.6538 24.7211 86.943 27.2401 91.78 27.2401C96.2575 27.2401 99.9335 25.1218 99.9335 20.5417C99.9335 15.618 95.7047 14.7306 92.7472 14.2726C90.7295 13.9577 88.5184 13.6714 88.5184 11.4672C88.5184 9.92145 89.6516 8.97684 91.5587 8.97684C93.7699 8.97684 95.0965 10.2651 95.4006 11.9253Z" fill="#403F41"/>
        <path d="M80.8623 5.82812H76.5228V26.5818H80.8623V5.82812Z" fill="#403F41"/>
        <path d="M63.4217 19.3391H69.0879C68.2033 21.5721 66.2132 22.631 63.9191 22.631C59.8839 22.631 58.0044 19.3964 58.0044 16.1903C58.0044 12.9555 59.7732 9.66361 63.8916 9.66361C66.4068 9.66361 68.2861 10.8659 69.0049 13.0128L73.6759 13.0128C72.8744 8.17515 68.7837 5.39844 63.9469 5.39844C57.9767 5.39844 53.4991 9.60632 53.4991 16.2476C53.4991 22.9746 58.3636 26.9536 63.9191 26.9536C69.3918 26.9536 73.6759 23.2609 73.6759 17.4785V15.7895H63.4217V19.3391Z" fill="#403F41"/>
        <path d="M43.5765 5.39844C38.6013 5.39844 34.9253 8.63307 34.9529 14.0147H39.4306C39.3752 11.6674 40.8124 9.52052 43.3553 9.52052C45.5665 9.52052 46.8656 11.1236 46.8656 12.9555C46.8656 14.7876 45.5665 15.8182 43.1618 16.9346C39.8727 18.4518 37.5234 19.425 35.1187 20.2838V26.5815H51.8684V22.3448H40.3696C40.3696 22.3448 40.4078 22.3324 40.4267 22.3266C42.3825 21.7128 43.8518 21.046 45.5942 20.2552C49.3255 18.5377 51.4537 16.3907 51.4537 12.7266C51.4537 8.23229 48.2476 5.39844 43.5765 5.39844Z" fill="#403F41"/>
        <path d="M23.1785 19.2819C17.54 19.3105 16.6279 22.8315 16.3239 25.8085L16.1857 27.1253H15.0524L14.9142 25.8085C14.6102 22.8315 13.6705 19.3105 8.22546 19.2819C7.31337 17.3352 6.92642 15.7608 6.92642 13.986C6.92642 9.54912 10.4367 5.39825 15.6328 5.39825C20.8291 5.39825 24.284 9.52034 24.284 14.0148C24.284 15.7608 24.1182 17.3352 23.1785 19.2819ZM15.5776 0.0166016C7.00942 0.0166016 -0.0111084 7.28762 -0.0111084 16.1901C-0.0111084 25.1215 7.00942 32.3924 15.5776 32.3924C24.2287 32.3924 31.2216 25.1215 31.2216 16.1901C31.2216 7.28764 24.2287 0.0166016 15.5776 0.0166016Z" fill="#29B24A"/>
    </g>
    <defs>
        <clipPath id="clip0_288_2797">
            <rect width="100" height="32.3758" fill="white"/>
        </clipPath>
    </defs>
</svg>
