<svg width="59" height="59" viewBox="0 0 59 59" fill="none" xmlns="http://www.w3.org/2000/svg">
    <path d="M32.6113 11.859V8.64258H33.6484C33.7543 8.64264 33.8593 8.62182 33.9572 8.5813C34.0551 8.54078 34.144 8.48137 34.2189 8.40645C34.2938 8.33154 34.3532 8.24259 34.3938 8.1447C34.4343 8.0468 34.4551 7.94188 34.455 7.83594V3.22656C34.4551 3.12062 34.4343 3.0157 34.3938 2.9178C34.3532 2.81991 34.2938 2.73096 34.2189 2.65605C34.144 2.58113 34.0551 2.52172 33.9572 2.4812C33.8593 2.44068 33.7543 2.41986 33.6484 2.41992H25.3515C25.2456 2.41986 25.1407 2.44068 25.0428 2.4812C24.9449 2.52172 24.8559 2.58113 24.781 2.65605C24.7061 2.73096 24.6467 2.81991 24.6062 2.9178C24.5656 3.0157 24.5448 3.12062 24.5449 3.22656V7.83594C24.5448 7.94188 24.5656 8.0468 24.6062 8.1447C24.6467 8.24259 24.7061 8.33154 24.781 8.40645C24.8559 8.48137 24.9449 8.54078 25.0428 8.5813C25.1407 8.62182 25.2456 8.64264 25.3515 8.64258H26.3886V11.859C24.4091 12.1333 22.4755 12.6727 20.6398 13.4626L19.523 11.5267L20.0217 11.2386C20.1135 11.1856 20.1939 11.1151 20.2585 11.0311C20.323 10.947 20.3703 10.8511 20.3978 10.7487C20.4252 10.6464 20.4322 10.5396 20.4184 10.4346C20.4045 10.3295 20.3702 10.2282 20.3172 10.1365L17.5515 5.34688C17.4445 5.1616 17.2683 5.02641 17.0617 4.971C16.855 4.9156 16.6348 4.94452 16.4494 5.05141L10.8606 8.27798C10.6754 8.38507 10.5403 8.56131 10.485 8.76797C10.4296 8.97463 10.4586 9.19479 10.5656 9.38008L13.3312 14.1697C13.4381 14.3549 13.6143 14.4901 13.8208 14.5455C14.0274 14.6009 14.2476 14.572 14.4328 14.4651L14.932 14.1766L16.0521 16.1171C11.8866 19.2325 8.93128 23.6969 7.69054 28.7484C6.44981 33.7999 7.00056 39.1254 9.24879 43.8161C11.497 48.5068 15.3034 52.2719 20.0183 54.4689C24.7332 56.6659 30.0644 57.1586 35.1021 55.8629C40.1398 54.5672 44.5717 51.5634 47.6415 47.3642C50.7113 43.1649 52.2287 38.0305 51.9347 32.8372C51.6408 27.6439 49.5537 22.7135 46.0296 18.8875C42.5056 15.0615 37.763 12.577 32.6113 11.8581V11.859ZM26.1582 4.0332H32.8418V7.0293H26.1582V4.0332ZM28.0019 8.64258H30.998V11.694C30.502 11.6613 30.0038 11.6387 29.5 11.6387C28.9962 11.6387 28.4974 11.6613 28.0019 11.694V8.64258ZM14.325 12.6656L12.366 9.27268L16.5578 6.85276L18.5167 10.2457L14.325 12.6656ZM16.3296 13.3709L18.1273 12.3342L19.181 14.1591C18.5664 14.479 17.9682 14.8257 17.3865 15.1994L16.3296 13.3709ZM29.5 54.9668C25.3748 54.9668 21.3422 53.7435 17.9122 51.4517C14.4822 49.1598 11.8089 45.9024 10.2302 42.0912C8.65157 38.28 8.23852 34.0862 9.04331 30.0403C9.8481 25.9944 11.8346 22.2779 14.7515 19.361C17.6685 16.444 21.3849 14.4575 25.4309 13.6527C29.4768 12.8479 33.6706 13.261 37.4817 14.8396C41.2929 16.4183 44.5504 19.0916 46.8423 22.5216C49.1341 25.9516 50.3574 29.9842 50.3574 34.1094C50.3513 39.6392 48.1519 44.9409 44.2416 48.8511C40.3314 52.7613 35.0298 54.9607 29.5 54.9668Z" fill="#E94E1B"/>
    <path d="M29.5 14.8652C25.6939 14.8652 21.9732 15.9939 18.8085 18.1085C15.6439 20.223 13.1773 23.2286 11.7207 26.745C10.2642 30.2614 9.8831 34.1307 10.6256 37.8637C11.3682 41.5967 13.201 45.0257 15.8923 47.717C18.5837 50.4084 22.0127 52.2412 25.7457 52.9837C29.4787 53.7263 33.348 53.3452 36.8644 51.8886C40.3808 50.4321 43.3864 47.9655 45.5009 44.8008C47.6155 41.6362 48.7442 37.9155 48.7442 34.1094C48.7381 29.0074 46.7086 24.1161 43.1009 20.5084C39.4933 16.9008 34.602 14.8713 29.5 14.8652ZM29.5 51.7402C26.013 51.7402 22.6042 50.7062 19.7048 48.7689C16.8054 46.8316 14.5457 44.078 13.2112 40.8564C11.8768 37.6348 11.5276 34.0898 12.2079 30.6698C12.8882 27.2497 14.5674 24.1082 17.0331 21.6425C19.4988 19.1768 22.6403 17.4976 26.0604 16.8173C29.4805 16.137 33.0254 16.4861 36.247 17.8206C39.4687 19.155 42.2222 21.4148 44.1595 24.3142C46.0968 27.2136 47.1309 30.6223 47.1309 34.1094C47.1256 38.7838 45.2664 43.2652 41.9611 46.5705C38.6558 49.8758 34.1744 51.735 29.5 51.7402Z" fill="#E94E1B"/>
    <path d="M29.5 20.2306C29.7139 20.2306 29.9191 20.1456 30.0704 19.9943C30.2217 19.843 30.3066 19.6379 30.3066 19.4239V18.963C30.3066 18.749 30.2217 18.5439 30.0704 18.3926C29.9191 18.2413 29.7139 18.1563 29.5 18.1563C29.2861 18.1563 29.0809 18.2413 28.9296 18.3926C28.7783 18.5439 28.6934 18.749 28.6934 18.963V19.4239C28.6934 19.6379 28.7783 19.843 28.9296 19.9943C29.0809 20.1456 29.2861 20.2306 29.5 20.2306Z" fill="#E94E1B"/>
    <path d="M29.5 47.9882C29.2861 47.9882 29.0809 48.0732 28.9296 48.2245C28.7783 48.3757 28.6934 48.5809 28.6934 48.7948V49.2558C28.6934 49.4697 28.7783 49.6749 28.9296 49.8261C29.0809 49.9774 29.2861 50.0624 29.5 50.0624C29.7139 50.0624 29.9191 49.9774 30.0704 49.8261C30.2217 49.6749 30.3066 49.4697 30.3066 49.2558V48.7948C30.3066 48.5809 30.2217 48.3757 30.0704 48.2245C29.9191 48.0732 29.7139 47.9882 29.5 47.9882Z" fill="#E94E1B"/>
    <path d="M44.6464 33.3027H44.1854C43.9715 33.3027 43.7663 33.3877 43.615 33.539C43.4638 33.6903 43.3788 33.8954 43.3788 34.1094C43.3788 34.3233 43.4638 34.5285 43.615 34.6798C43.7663 34.831 43.9715 34.916 44.1854 34.916H44.6464C44.8603 34.916 45.0655 34.831 45.2167 34.6798C45.368 34.5285 45.453 34.3233 45.453 34.1094C45.453 33.8954 45.368 33.6903 45.2167 33.539C45.0655 33.3877 44.8603 33.3027 44.6464 33.3027Z" fill="#E94E1B"/>
    <path d="M14.8145 33.3027H14.3535C14.1396 33.3027 13.9344 33.3877 13.7831 33.539C13.6319 33.6903 13.5469 33.8954 13.5469 34.1094C13.5469 34.3233 13.6319 34.5285 13.7831 34.6798C13.9344 34.831 14.1396 34.916 14.3535 34.916H14.8145C15.0284 34.916 15.2336 34.831 15.3848 34.6798C15.5361 34.5285 15.6211 34.3233 15.6211 34.1094C15.6211 33.8954 15.5361 33.6903 15.3848 33.539C15.2336 33.3877 15.0284 33.3027 14.8145 33.3027Z" fill="#E94E1B"/>
    <path d="M22.6255 20.5887C22.573 20.4962 22.5026 20.4151 22.4185 20.3499C22.3345 20.2847 22.2383 20.2368 22.1357 20.2089C22.033 20.1811 21.9258 20.1738 21.8203 20.1875C21.7149 20.2012 21.6131 20.2356 21.521 20.2888C21.4289 20.342 21.3482 20.4129 21.2835 20.4974C21.2189 20.5819 21.1717 20.6784 21.1445 20.7812C21.1173 20.8841 21.1107 20.9913 21.1251 21.0967C21.1395 21.2021 21.1746 21.3036 21.2284 21.3953L21.4589 21.7945C21.5115 21.887 21.5818 21.9682 21.6659 22.0333C21.75 22.0985 21.8461 22.1464 21.9488 22.1743C22.0515 22.2022 22.1586 22.2095 22.2641 22.1957C22.3696 22.182 22.4713 22.1476 22.5635 22.0944C22.6556 22.0412 22.7363 21.9703 22.8009 21.8858C22.8655 21.8013 22.9128 21.7049 22.94 21.602C22.9672 21.4992 22.9738 21.392 22.9593 21.2866C22.9449 21.1812 22.9098 21.0797 22.856 20.9879L22.6255 20.5887Z" fill="#E94E1B"/>
    <path d="M37.5411 46.4243C37.4885 46.3318 37.4181 46.2506 37.3341 46.1854C37.25 46.1203 37.1539 46.0723 37.0512 46.0445C36.9485 46.0166 36.8414 46.0093 36.7359 46.023C36.6304 46.0367 36.5286 46.0712 36.4365 46.1244C36.3444 46.1776 36.2637 46.2485 36.1991 46.333C36.1345 46.4175 36.0872 46.5139 36.06 46.6168C36.0328 46.7196 36.0262 46.8268 36.0406 46.9322C36.0551 47.0376 36.0902 47.1391 36.144 47.2309L36.3744 47.6301C36.427 47.7225 36.4974 47.8037 36.5814 47.8689C36.6655 47.9341 36.7617 47.982 36.8643 48.0098C36.967 48.0377 37.0741 48.045 37.1796 48.0313C37.2851 48.0176 37.3869 47.9831 37.479 47.9299C37.5711 47.8768 37.6518 47.8059 37.7164 47.7214C37.7811 47.6369 37.8283 47.5404 37.8555 47.4376C37.8827 47.3347 37.8893 47.2275 37.8749 47.1221C37.8605 47.0167 37.8253 46.9152 37.7715 46.8234L37.5411 46.4243Z" fill="#E94E1B"/>
    <path d="M42.2191 27.5733C42.3604 27.5734 42.4992 27.5361 42.6215 27.4654L43.0207 27.2349C43.1132 27.1824 43.1943 27.112 43.2595 27.0279C43.3247 26.9439 43.3726 26.8477 43.4005 26.7451C43.4283 26.6424 43.4356 26.5352 43.4219 26.4298C43.4082 26.3243 43.3738 26.2225 43.3206 26.1304C43.2674 26.0383 43.1965 25.9576 43.112 25.893C43.0275 25.8283 42.931 25.7811 42.8282 25.7539C42.7253 25.7267 42.6181 25.7201 42.5127 25.7345C42.4073 25.7489 42.3058 25.784 42.214 25.8378L41.8149 26.0683C41.6612 26.1572 41.5411 26.2943 41.4732 26.4584C41.4053 26.6225 41.3935 26.8044 41.4396 26.9759C41.4857 27.1474 41.587 27.2989 41.728 27.4069C41.8689 27.5149 42.0415 27.5734 42.2191 27.5733Z" fill="#E94E1B"/>
    <path d="M16.3784 40.7533L15.9792 40.9838C15.8868 41.0364 15.8056 41.1067 15.7404 41.1908C15.6752 41.2749 15.6273 41.371 15.5995 41.4737C15.5716 41.5764 15.5643 41.6835 15.578 41.789C15.5917 41.8945 15.6262 41.9962 15.6794 42.0884C15.7326 42.1805 15.8034 42.2612 15.8879 42.3258C15.9725 42.3904 16.0689 42.4377 16.1718 42.4649C16.2746 42.4921 16.3818 42.4987 16.4872 42.4842C16.5926 42.4698 16.6941 42.4347 16.7859 42.3809L17.1851 42.1504C17.2775 42.0979 17.3587 42.0275 17.4239 41.9434C17.4891 41.8594 17.537 41.7632 17.5648 41.6606C17.5927 41.5579 17.6 41.4507 17.5863 41.3452C17.5726 41.2398 17.5381 41.138 17.4849 41.0459C17.4317 40.9538 17.3609 40.8731 17.2764 40.8084C17.1918 40.7438 17.0954 40.6966 16.9925 40.6694C16.8897 40.6422 16.7825 40.6356 16.6771 40.65C16.5717 40.6644 16.4702 40.6995 16.3784 40.7533Z" fill="#E94E1B"/>
    <path d="M17.1851 26.0683L16.7859 25.8378C16.6941 25.784 16.5926 25.7489 16.4872 25.7345C16.3818 25.7201 16.2746 25.7267 16.1718 25.7539C16.0689 25.7811 15.9725 25.8283 15.8879 25.893C15.8034 25.9576 15.7326 26.0383 15.6794 26.1304C15.6262 26.2225 15.5917 26.3243 15.578 26.4298C15.5643 26.5352 15.5716 26.6424 15.5995 26.7451C15.6273 26.8477 15.6752 26.9439 15.7404 27.0279C15.8056 27.112 15.8868 27.1824 15.9792 27.2349L16.3784 27.4654C16.4702 27.5192 16.5717 27.5543 16.6771 27.5687C16.7825 27.5832 16.8897 27.5766 16.9925 27.5494C17.0954 27.5222 17.1918 27.4749 17.2764 27.4103C17.3609 27.3457 17.4317 27.265 17.4849 27.1729C17.5381 27.0807 17.5726 26.979 17.5863 26.8735C17.6 26.768 17.5927 26.6609 17.5648 26.5582C17.537 26.4555 17.4891 26.3594 17.4239 26.2753C17.3587 26.1912 17.2775 26.1209 17.1851 26.0683Z" fill="#E94E1B"/>
    <path d="M43.0206 40.9838L42.6215 40.7533C42.5297 40.6995 42.4282 40.6644 42.3228 40.65C42.2174 40.6356 42.1102 40.6422 42.0073 40.6694C41.9045 40.6966 41.808 40.7438 41.7235 40.8084C41.639 40.8731 41.5681 40.9538 41.5149 41.0459C41.4617 41.138 41.4273 41.2398 41.4136 41.3452C41.3999 41.4507 41.4072 41.5579 41.435 41.6606C41.4629 41.7632 41.5108 41.8594 41.576 41.9434C41.6412 42.0275 41.7223 42.0979 41.8148 42.1504L42.214 42.3809C42.3058 42.4347 42.4073 42.4698 42.5127 42.4842C42.6181 42.4987 42.7253 42.4921 42.8281 42.4649C42.931 42.4377 43.0274 42.3904 43.1119 42.3258C43.1964 42.2612 43.2673 42.1805 43.3205 42.0884C43.3737 41.9962 43.4081 41.8945 43.4219 41.789C43.4356 41.6835 43.4283 41.5764 43.4004 41.4737C43.3725 41.371 43.3246 41.2749 43.2594 41.1908C43.1943 41.1067 43.1131 41.0364 43.0206 40.9838Z" fill="#E94E1B"/>
    <path d="M36.4394 22.09C36.6247 22.1969 36.8448 22.2258 37.0514 22.1704C37.258 22.1149 37.4341 21.9798 37.5411 21.7945L37.7715 21.3953C37.8253 21.3036 37.8604 21.2021 37.8749 21.0967C37.8893 20.9913 37.8827 20.8841 37.8555 20.7812C37.8283 20.6784 37.781 20.5819 37.7164 20.4974C37.6518 20.4129 37.5711 20.342 37.479 20.2888C37.3869 20.2356 37.2851 20.2012 37.1796 20.1875C37.0741 20.1738 36.967 20.1811 36.8643 20.2089C36.7616 20.2368 36.6655 20.2847 36.5814 20.3499C36.4974 20.4151 36.427 20.4962 36.3744 20.5887L36.144 20.9879C36.0371 21.1732 36.0081 21.3934 36.0635 21.6001C36.1189 21.8068 36.2541 21.983 36.4394 22.09Z" fill="#E94E1B"/>
    <path d="M22.5605 46.1288C22.3752 46.022 22.1552 45.9932 21.9486 46.0486C21.7421 46.104 21.5659 46.2391 21.4589 46.4242L21.2284 46.8234C21.1746 46.9152 21.1395 47.0167 21.1251 47.1221C21.1107 47.2275 21.1173 47.3347 21.1445 47.4375C21.1717 47.5404 21.2189 47.6368 21.2835 47.7213C21.3482 47.8058 21.4289 47.8767 21.521 47.9299C21.6131 47.9831 21.7149 48.0176 21.8203 48.0313C21.9258 48.045 22.033 48.0377 22.1357 48.0098C22.2383 47.9819 22.3345 47.934 22.4185 47.8689C22.5026 47.8037 22.573 47.7225 22.6255 47.63L22.856 47.2309C22.9629 47.0455 22.9918 46.8253 22.9364 46.6187C22.881 46.412 22.7458 46.2358 22.5605 46.1288Z" fill="#E94E1B"/>
    <path d="M38.5532 27.9512L31.2792 32.1504C30.8106 31.7259 30.2056 31.4829 29.5736 31.4652C28.9415 31.4475 28.324 31.6564 27.8324 32.054C27.3408 32.4517 27.0075 33.0119 26.8927 33.6337C26.7779 34.2555 26.8891 34.8979 27.2063 35.4449C27.5235 35.9918 28.0258 36.4074 28.6225 36.6166C29.2192 36.8258 29.871 36.8148 30.4603 36.5856C31.0496 36.3564 31.5376 35.9241 31.8362 35.3668C32.1348 34.8094 32.2243 34.1637 32.0886 33.5461L39.3599 29.3483C39.5436 29.2406 39.6773 29.0646 39.7318 28.8586C39.7862 28.6527 39.757 28.4336 39.6505 28.2491C39.544 28.0647 39.3688 27.9298 39.1633 27.874C38.9577 27.8182 38.7384 27.846 38.5532 27.9512ZM29.4999 35.1465C29.2948 35.1465 29.0943 35.0856 28.9238 34.9717C28.7532 34.8577 28.6203 34.6958 28.5418 34.5063C28.4633 34.3167 28.4428 34.1082 28.4828 33.907C28.5228 33.7059 28.6216 33.5211 28.7666 33.376C28.9116 33.231 29.0964 33.1322 29.2976 33.0922C29.4988 33.0522 29.7073 33.0727 29.8968 33.1512C30.0863 33.2297 30.2483 33.3626 30.3623 33.5332C30.4762 33.7037 30.5371 33.9042 30.5371 34.1094C30.5367 34.3843 30.4273 34.6479 30.2329 34.8423C30.0385 35.0367 29.7749 35.1461 29.4999 35.1465Z" fill="#E94E1B"/>
</svg>
