<svg width="53" height="53" viewBox="0 0 53 53" fill="none" xmlns="http://www.w3.org/2000/svg">
    <g clip-path="url(#clip0_1_291)">
        <mask id="mask0_1_291" style="mask-type:luminance" maskUnits="userSpaceOnUse" x="0" y="0" width="53" height="53">
            <path d="M0 3.8147e-06H53V53H0V3.8147e-06Z" fill="white"/>
        </mask>
        <g mask="url(#mask0_1_291)">
            <path d="M28.768 19.4087L29.5771 18.6013L31.6945 16.4886C32.7872 15.3984 32.7872 13.6128 31.6945 12.5226C30.6019 11.4322 28.8124 11.4322 27.7196 12.5226L24.7932 15.4426" stroke="#E94E1B" stroke-width="2" stroke-miterlimit="10" stroke-linecap="round" stroke-linejoin="round"/>
            <path d="M42.3821 25.1634C41.4253 24.2087 39.8571 24.2087 38.9003 25.1634L35.1823 28.8761C34.2255 29.8308 34.2255 31.3926 35.1823 32.3472C36.1391 33.3019 37.7043 33.3019 38.6612 32.3472L42.3821 28.6345C43.339 27.6799 43.339 26.1181 42.3821 25.1634Z" stroke="#E94E1B" stroke-width="2" stroke-miterlimit="10" stroke-linecap="round" stroke-linejoin="round"/>
            <path d="M35.2976 20.826C34.9254 21.1973 35.6903 20.4341 35.7021 20.4224C36.7622 19.3292 36.7505 17.57 35.6696 16.4886C34.577 15.3984 32.7873 15.3984 31.6946 16.4886L30.2299 17.9501" stroke="#E94E1B" stroke-width="2" stroke-miterlimit="10" stroke-linecap="round" stroke-linejoin="round"/>
            <path d="M34.8634 44.057C34.8073 42.7221 35.0612 41.3726 35.6312 40.1381L22.785 27.3173M37.5596 32.9808L40.182 35.5972C43.3183 34.1593 47.1721 34.7251 49.7472 37.2945C51.8028 39.3453 52.5794 42.2094 52.0745 44.8732C51.5457 47.6694 50.0693 45.5538 49.768 45.2533L46.1621 41.6555C44.9012 40.3973 42.8724 40.3443 41.5464 41.4993C40.3887 42.8223 40.4419 44.8467 41.7028 46.1049L45.3087 49.7027C45.6099 50.0032 47.7304 51.4765 44.9278 52.004C42.2581 52.5079 39.3876 51.7329 37.3323 49.682C36.6913 49.0397 36.1746 48.3207 35.7819 47.5546M20.5878 16.0496L17.3688 12.8348C18.81 9.7055 18.2429 5.86021 15.6677 3.29085C13.6124 1.24 10.742 0.464976 8.07227 0.96889C5.26969 1.4963 7.39011 2.96964 7.69134 3.27015L11.2972 6.86793C12.5581 8.12617 12.6113 10.1505 11.4537 11.4734C10.1277 12.6286 8.09888 12.5755 6.83796 11.3173L3.23209 7.71956C2.93086 7.41895 1.45432 5.3033 0.925558 8.09967C0.420713 10.7634 1.19729 13.6275 3.2528 15.6784C5.82795 18.2477 9.68174 18.8135 12.8181 17.3756L16.226 20.7759" stroke="#E94E1B" stroke-width="2" stroke-miterlimit="10" stroke-linecap="round" stroke-linejoin="round"/>
            <path d="M14.9295 40.7745L19.3829 45.2179C20.0711 45.9045 20.0711 47.0271 19.3829 47.7138L15.4228 51.6652C14.7346 52.3517 13.6095 52.3517 12.9214 51.6652L1.98584 40.7539C1.29777 40.0673 1.29777 38.9446 1.98584 38.258L5.94604 34.3067C6.6341 33.6201 7.75922 33.6201 8.44739 34.3067L12.3633 38.2139" stroke="#E94E1B" stroke-width="2" stroke-miterlimit="10" stroke-linecap="round" stroke-linejoin="round"/>
            <path d="M19.3829 45.2179L24.6573 39.9553C26.633 37.984 27.0168 38.4084 29.3498 38.7414C30.3952 38.8916 31.8866 38.3347 33.0856 37.598" stroke="#E94E1B" stroke-width="2" stroke-miterlimit="10" stroke-linecap="round" stroke-linejoin="round"/>
            <path d="M38.9003 21.1973C37.8076 20.1071 36.0181 20.1071 34.9254 21.1973L32.0105 24.1056C30.9149 25.1988 30.9149 26.9815 32.0105 28.0717C33.1033 29.1649 34.8928 29.1649 35.9855 28.0717L38.9003 25.1634C39.996 24.0732 39.996 22.2875 38.9003 21.1973Z" stroke="#E94E1B" stroke-width="2" stroke-miterlimit="10" stroke-linecap="round" stroke-linejoin="round"/>
            <path d="M32.3709 23.7491C32.4507 22.9742 31.169 21.8043 29.8518 20.4901L24.0608 14.7118C23.476 14.1284 22.5132 14.1284 21.9256 14.7149L17.1444 19.4854C16.0577 20.5697 15.5703 22.1638 15.656 23.5959C15.7889 25.7881 14.767 28.004 11.7371 31.0243L8.44739 34.3067M22.7702 21.3564C22.8203 21.4094 24.7783 23.3602 24.8285 23.4103C26.3789 24.9071 29.5063 26.1976 31.5233 24.7598" stroke="#E94E1B" stroke-width="2" stroke-miterlimit="10" stroke-linecap="round" stroke-linejoin="round"/>
            <path d="M22.7702 21.3564C24.4977 23.0802 24.0193 26.351 21.7041 28.661" stroke="#E94E1B" stroke-width="2" stroke-miterlimit="10" stroke-linecap="round" stroke-linejoin="round"/>
        </g>
    </g>
    <defs>
        <clipPath id="clip0_1_291">
            <rect width="53" height="53" fill="white"/>
        </clipPath>
    </defs>
</svg>
