<svg width="40" height="40" viewBox="0 0 40 40" fill="none" xmlns="http://www.w3.org/2000/svg">
    <g clip-path="url(#clip0_279_634)">
        <path d="M35.1253 13.8905L31.2043 12.4633C32.622 11.2919 33.2273 9.43389 32.7933 7.66827C31.9404 4.19928 27.7108 2.88241 25.0386 5.24467L22.3314 7.6378L21.7959 4.04874C21.2664 0.51522 17.1755 -1.18478 14.2976 0.920688C12.8586 1.97342 12.0932 3.78819 12.4326 5.63084L8.73589 4.28538C6.91714 3.62327 4.89846 4.56452 4.23636 6.3835L2.63557 10.7817C2.41456 11.389 2.72768 12.0605 3.33503 12.2815C3.58136 12.3711 21.3617 18.8426 21.6228 18.9376C20.8828 18.9376 4.67729 18.9376 3.96432 18.9376C3.31807 18.9376 2.79417 19.4615 2.79417 20.1078V36.4897C2.79417 38.4253 4.36893 40.0001 6.30456 40.0001H15.6657H20.3462H29.7073C31.6429 40.0001 33.2177 38.4253 33.2177 36.4897V23.1579L34.1229 23.4874C34.7274 23.7076 35.4007 23.3978 35.6227 22.788L37.2235 18.3898C37.8854 16.5708 36.9442 14.5525 35.1253 13.8905ZM14.4954 37.6598H6.30448C5.65925 37.6598 5.13432 37.1349 5.13432 36.4897V21.278H14.4954V37.6598ZM19.176 37.6598H16.8357V21.278H19.176V37.6598ZM26.5885 6.99811C27.946 5.79803 30.0889 6.47123 30.5207 8.22709C30.981 10.0992 29.1715 11.7225 27.3604 11.0644C25.8199 10.5037 25.0981 10.2409 23.5555 9.67944L26.5885 6.99811ZM15.6793 2.80959C17.1418 1.73975 19.2135 2.60788 19.4815 4.39577L20.0815 8.41491C19.6496 8.25772 16.7017 7.18467 16.2769 7.03014C14.4657 6.37053 14.1235 3.94756 15.6793 2.80959ZM16.2306 14.4846L5.23495 10.4825L6.43557 7.18389C6.65628 6.57756 7.32917 6.26397 7.93542 6.48452C9.16589 6.93233 17.4519 9.94819 17.8314 10.0863L16.2306 14.4846ZM20.6289 16.0855L18.4297 15.2851L20.0306 10.8869L22.2297 11.6873L20.6289 16.0855ZM30.8773 36.4897C30.8773 37.1349 30.3524 37.6598 29.7071 37.6598H21.5163V21.278H28.0527L30.8774 22.3061V36.4897H30.8773ZM35.0242 17.5893L33.8236 20.888L22.828 16.8858L24.4289 12.4876L34.3249 16.0894C34.9312 16.3101 35.2449 16.983 35.0242 17.5893Z" fill="white"/>
    </g>
    <defs>
        <clipPath id="clip0_279_634">
            <rect width="40" height="40" fill="white"/>
        </clipPath>
    </defs>
</svg>
