<svg width="120" height="120" viewBox="0 0 120 120" fill="none" xmlns="http://www.w3.org/2000/svg">
<g id="ph:package">
<path id="Vector" d="M104.85 31.0075L63.6 8.43722C62.4978 7.82823 61.2592 7.50879 60 7.50879C58.7408 7.50879 57.5022 7.82823 56.4 8.43722L15.15 31.0169C13.972 31.6615 12.9886 32.6105 12.3026 33.7648C11.6166 34.9192 11.253 36.2366 11.25 37.5794V82.4107C11.253 83.7535 11.6166 85.0709 12.3026 86.2252C12.9886 87.3796 13.972 88.3286 15.15 88.9732L56.4 111.553C57.5022 112.162 58.7408 112.481 60 112.481C61.2592 112.481 62.4978 112.162 63.6 111.553L104.85 88.9732C106.028 88.3286 107.011 87.3796 107.697 86.2252C108.383 85.0709 108.747 83.7535 108.75 82.4107V37.5841C108.749 36.2389 108.387 34.9186 107.701 33.7615C107.015 32.6044 106.03 31.6532 104.85 31.0075ZM60 14.9997L97.6594 35.6247L83.7047 43.2653L46.0406 22.6403L60 14.9997ZM60 56.2497L22.3406 35.6247L38.2312 26.9247L75.8906 47.5497L60 56.2497ZM18.75 42.1872L56.25 62.7091V102.923L18.75 82.4153V42.1872ZM101.25 82.3966L63.75 102.923V62.7278L78.75 54.52V71.2497C78.75 72.2443 79.1451 73.1981 79.8483 73.9014C80.5516 74.6046 81.5054 74.9997 82.5 74.9997C83.4946 74.9997 84.4484 74.6046 85.1517 73.9014C85.8549 73.1981 86.25 72.2443 86.25 71.2497V50.4138L101.25 42.1872V82.3919V82.3966Z" fill="#EDC50D"/>
</g>
</svg>
