<svg width="120" height="120" viewBox="0 0 120 120" fill="none" xmlns="http://www.w3.org/2000/svg">
<g id="ph:tree">
<path id="Vector" d="M92.8595 29.3441C90.1468 22.8671 85.5804 17.3363 79.7341 13.4465C73.8877 9.55671 67.0222 7.48145 60.0001 7.48145C52.978 7.48145 46.1125 9.55671 40.2662 13.4465C34.4199 17.3363 29.8535 22.8671 27.1408 29.3441C21.3028 32.0476 16.3553 36.3576 12.8772 41.7699C9.39899 47.1823 7.53392 53.4731 7.50013 59.9066C7.44857 78.1035 22.2001 93.2816 40.3783 93.7504C45.8773 93.8939 51.3274 92.685 56.2501 90.23V108.75C56.2501 109.745 56.6452 110.699 57.3485 111.402C58.0517 112.105 59.0056 112.5 60.0001 112.5C60.9947 112.5 61.9485 112.105 62.6518 111.402C63.355 110.699 63.7501 109.745 63.7501 108.75V90.23C68.4086 92.5532 73.5445 93.7586 78.7501 93.7504H79.622C97.8001 93.2816 112.552 78.1129 112.5 59.916C112.469 53.4808 110.605 47.1877 107.126 41.7734C103.648 36.3592 98.6993 32.0478 92.8595 29.3441ZM79.4298 86.2504C74.0141 86.4014 68.686 84.8613 64.1861 81.8441C64.0392 81.7504 63.8939 81.6613 63.7501 81.5769V62.316L84.1783 52.1066C84.619 51.8862 85.012 51.5812 85.3349 51.2089C85.6578 50.8367 85.9042 50.4044 86.06 49.937C86.2158 49.4695 86.278 48.9759 86.2431 48.4843C86.2082 47.9928 86.0768 47.513 85.8564 47.0722C85.636 46.6315 85.331 46.2385 84.9587 45.9156C84.5864 45.5927 84.1542 45.3463 83.6868 45.1905C83.2193 45.0347 82.7257 44.9725 82.2341 45.0074C81.7426 45.0423 81.2628 45.1737 80.822 45.3941L63.7501 53.9347V41.2504C63.7501 40.2558 63.355 39.302 62.6518 38.5987C61.9485 37.8954 60.9947 37.5004 60.0001 37.5004C59.0056 37.5004 58.0517 37.8954 57.3485 38.5987C56.6452 39.302 56.2501 40.2558 56.2501 41.2504V65.1847L39.1783 56.6441C38.2881 56.199 37.2577 56.1258 36.3135 56.4405C35.3694 56.7552 34.5889 57.4321 34.1439 58.3222C33.6988 59.2124 33.6256 60.2428 33.9403 61.187C34.255 62.1311 34.9319 62.9115 35.822 63.3566L56.2501 73.566V81.5629C56.1033 81.6472 55.9579 81.7363 55.8142 81.83C51.3148 84.8496 45.9873 86.3945 40.5704 86.2504C34.6418 86.1023 28.938 83.951 24.3883 80.147C19.8386 76.343 16.711 71.1104 15.5152 65.3018C14.3193 59.4931 15.1256 53.4507 17.8027 48.1589C20.4798 42.867 24.87 38.6376 30.2579 36.1597C31.962 35.379 33.3093 33.9848 34.0314 32.255C36.1719 27.1394 39.7769 22.7707 44.3933 19.6981C49.0096 16.6255 54.4313 14.9862 59.9767 14.9862C65.5221 14.9862 70.9438 16.6255 75.5601 19.6981C80.1765 22.7707 83.7815 27.1394 85.922 32.255C86.6441 33.9848 87.9914 35.379 89.6954 36.1597C95.0834 38.6376 99.4736 42.867 102.151 48.1589C104.828 53.4507 105.634 59.4931 104.438 65.3018C103.242 71.1104 100.115 76.343 95.5651 80.147C91.0154 83.951 85.3116 86.1023 79.3829 86.2504H79.4298Z" fill="#EDC50D"/>
</g>
</svg>
