<svg width="120" height="120" viewBox="0 0 120 120" fill="none" xmlns="http://www.w3.org/2000/svg">
<g id="ph:recycle">
<path id="Vector" d="M45 97.4999C45 98.4944 44.6049 99.4483 43.9016 100.152C43.1984 100.855 42.2446 101.25 41.25 101.25H18.75C16.7758 101.249 14.8367 100.728 13.1274 99.7401C11.4181 98.7522 9.99892 97.3319 9.01234 95.6219C8.02576 93.9119 7.50654 91.9724 7.50684 89.9982C7.50714 88.024 8.02695 86.0846 9.01405 84.3749L25.0875 56.6014L18.5016 58.3592C18.0245 58.4867 17.527 58.5189 17.0375 58.454C16.548 58.3892 16.076 58.2286 15.6486 57.9813C14.7853 57.482 14.1558 56.6602 13.8984 55.6968C13.6411 54.7333 13.777 53.707 14.2763 52.8438C14.7757 51.9805 15.5974 51.351 16.5609 51.0936L31.9219 46.9827C32.3977 46.8551 32.894 46.8225 33.3824 46.8869C33.8709 46.9512 34.3418 47.1111 34.7684 47.3575C35.1951 47.6038 35.5689 47.9319 35.8687 48.3228C36.1685 48.7137 36.3883 49.1599 36.5156 49.6358L40.6359 64.9967C40.7661 65.4748 40.8002 65.9738 40.7364 66.4651C40.6725 66.9564 40.512 67.4302 40.264 67.8591C40.016 68.2879 39.6854 68.6634 39.2915 68.9638C38.8975 69.2642 38.448 69.4836 37.9687 69.6092C37.6503 69.6922 37.3228 69.7347 36.9937 69.7358C36.1688 69.735 35.3671 69.4622 34.7129 68.9597C34.0587 68.4572 33.5884 67.753 33.375 66.9561L31.5937 60.3233L15.5203 88.1249C15.1919 88.6936 15.0187 89.3387 15.0179 89.9954C15.0171 90.6522 15.1888 91.2976 15.5158 91.8671C15.8428 92.4367 16.3137 92.9104 16.8813 93.2408C17.4488 93.5712 18.0932 93.7467 18.75 93.7499H41.25C42.2446 93.7499 43.1984 94.145 43.9016 94.8482C44.6049 95.5515 45 96.5053 45 97.4999ZM110.967 84.3749L100.12 65.6249C99.6014 64.8086 98.7872 64.2244 97.8478 63.9943C96.9083 63.7642 95.9163 63.906 95.0789 64.39C94.2416 64.8741 93.6236 65.6629 93.3541 66.5918C93.0846 67.5207 93.1845 68.5178 93.6328 69.3749L104.48 88.1249C104.808 88.6936 104.981 89.3387 104.982 89.9954C104.983 90.6522 104.811 91.2976 104.484 91.8671C104.157 92.4367 103.686 92.9104 103.119 93.2408C102.551 93.5712 101.907 93.7467 101.25 93.7499H69.0516L73.8984 88.903C74.6021 88.2 74.9976 87.2462 74.9981 86.2515C74.9985 85.2569 74.6038 84.3027 73.9008 83.5991C73.1977 82.8954 72.244 82.4999 71.2493 82.4994C70.2546 82.499 69.3005 82.8937 68.5969 83.5967L57.3469 94.8467C56.9982 95.195 56.7216 95.6086 56.5329 96.0639C56.3442 96.5191 56.247 97.0071 56.247 97.4999C56.247 97.9927 56.3442 98.4807 56.5329 98.9359C56.7216 99.3911 56.9982 99.8047 57.3469 100.153L68.5969 111.403C68.9453 111.751 69.3588 112.027 69.8139 112.215C70.2691 112.404 70.7568 112.501 71.2493 112.5C71.7418 112.5 72.2295 112.403 72.6844 112.214C73.1394 112.026 73.5527 111.749 73.9008 111.401C74.2489 111.052 74.5249 110.639 74.7132 110.184C74.9015 109.728 74.9983 109.241 74.9981 108.748C74.9979 108.256 74.9006 107.768 74.712 107.313C74.5233 106.858 74.2468 106.445 73.8984 106.097L69.0516 101.25H101.25C103.224 101.249 105.163 100.728 106.873 99.7401C108.582 98.7522 110.001 97.3319 110.988 95.6219C111.974 93.9119 112.493 91.9724 112.493 89.9982C112.493 88.024 111.973 86.0846 110.986 84.3749H110.967ZM60 14.9999C60.659 14.9933 61.3078 15.1638 61.8784 15.4936C62.449 15.8235 62.9205 16.3005 63.2437 16.8749L79.3172 44.6483L72.7172 42.8764C71.7683 42.6537 70.77 42.8092 69.9338 43.3099C69.0976 43.8106 68.4892 44.6172 68.2375 45.5588C67.9858 46.5004 68.1106 47.503 68.5854 48.3542C69.0602 49.2053 69.8478 49.8382 70.7812 50.1186L86.1469 54.2389C86.4636 54.3221 86.7897 54.3647 87.1172 54.3655C87.9421 54.3647 88.7438 54.0919 89.398 53.5894C90.0522 53.0869 90.5225 52.3827 90.7359 51.5858L94.8562 36.2155C94.9977 35.7356 95.0417 35.2323 94.9856 34.7351C94.9296 34.238 94.7747 33.7571 94.5299 33.3207C94.2852 32.8844 93.9556 32.5014 93.5606 32.1944C93.1656 31.8874 92.7131 31.6625 92.2299 31.533C91.7466 31.4035 91.2423 31.372 90.7467 31.4404C90.2511 31.5088 89.7742 31.6756 89.3441 31.9311C88.914 32.1867 88.5393 32.5256 88.2422 32.9282C87.9451 33.3307 87.7315 33.7886 87.6141 34.2749L85.8328 40.9171L69.7359 13.1249C68.7476 11.4179 67.3279 10.0007 65.6191 9.01551C63.9103 8.03032 61.9725 7.51172 60 7.51172C58.0275 7.51172 56.0897 8.03032 54.3809 9.01551C52.6721 10.0007 51.2524 11.4179 50.2641 13.1249L39.4078 31.8749C38.9414 32.7339 38.8287 33.741 39.094 34.6818C39.3592 35.6226 39.9812 36.4227 40.8276 36.9116C41.674 37.4005 42.6779 37.5396 43.6254 37.2992C44.5728 37.0589 45.389 36.4581 45.9 35.6249L56.7562 16.8749C57.0795 16.3005 57.551 15.8235 58.1216 15.4936C58.6922 15.1638 59.3409 14.9933 60 14.9999Z" fill="#EDC50D"/>
</g>
</svg>
