<svg width="20" height="20" viewBox="0 0 20 20" fill="none" xmlns="http://www.w3.org/2000/svg">
    <path d="M12.0253 15.6833C11.8669 15.6833 11.7086 15.625 11.5836 15.5C11.3419 15.2583 11.3419 14.8583 11.5836 14.6167L16.2003 10L11.5836 5.38333C11.3419 5.14167 11.3419 4.74167 11.5836 4.5C11.8253 4.25833 12.2253 4.25833 12.4669 4.5L17.5253 9.55833C17.7669 9.8 17.7669 10.2 17.5253 10.4417L12.4669 15.5C12.3419 15.625 12.1836 15.6833 12.0253 15.6833Z" fill="white"/>
    <path d="M16.941 10.625H2.91602C2.57435 10.625 2.29102 10.3417 2.29102 10C2.29102 9.65833 2.57435 9.375 2.91602 9.375H16.941C17.2827 9.375 17.566 9.65833 17.566 10C17.566 10.3417 17.2827 10.625 16.941 10.625Z" fill="white"/>
</svg>

