<svg width="20" height="20" viewBox="0 0 20 20" fill="none" xmlns="http://www.w3.org/2000/svg">
    <path d="M7.97474 15.6833C8.13307 15.6833 8.29141 15.625 8.41641 15.5C8.65807 15.2583 8.65807 14.8583 8.41641 14.6167L3.79974 10L8.41641 5.38333C8.65807 5.14167 8.65807 4.74167 8.41641 4.5C8.17474 4.25833 7.77474 4.25833 7.53307 4.5L2.47474 9.55833C2.23307 9.8 2.23307 10.2 2.47474 10.4417L7.53307 15.5C7.65807 15.625 7.81641 15.6833 7.97474 15.6833Z" fill="white"/>
    <path d="M3.05899 10.625H17.084C17.4257 10.625 17.709 10.3417 17.709 10C17.709 9.65833 17.4257 9.375 17.084 9.375H3.05899C2.71732 9.375 2.43399 9.65833 2.43399 10C2.43399 10.3417 2.71732 10.625 3.05899 10.625Z" fill="white"/>
</svg>
