<svg xmlns="http://www.w3.org/2000/svg" width="40" height="40" viewBox="0 0 40 40" fill="none">
    <g clip-path="url(#clip0_291_3649)">
        <path d="M20 40C31.0457 40 40 31.0457 40 20C40 8.9543 31.0457 0 20 0C8.9543 0 0 8.9543 0 20C0 31.0457 8.9543 40 20 40Z" fill="#039BE5"/>
        <path d="M9.1521 19.5665L28.4354 12.1315C29.3304 11.8082 30.1121 12.3499 29.8221 13.7032L29.8238 13.7015L26.5404 29.1699C26.2971 30.2665 25.6454 30.5332 24.7338 30.0165L19.7338 26.3315L17.3221 28.6549C17.0554 28.9215 16.8304 29.1465 16.3138 29.1465L16.6688 24.0582L25.9354 15.6865C26.3388 15.3315 25.8454 15.1315 25.3138 15.4849L13.8621 22.6949L8.92544 21.1549C7.85377 20.8149 7.83044 20.0832 9.1521 19.5665Z" fill="white"/>
    </g>
    <defs>
        <clipPath id="clip0_291_3649">
            <rect width="40" height="40" fill="white"/>
        </clipPath>
    </defs>
</svg>