<svg width="27" height="26" viewBox="0 0 27 26" fill="none" xmlns="http://www.w3.org/2000/svg">
    <g clip-path="url(#clip0_1_342)">
        <path d="M13.5 26C20.9558 26 27 20.1797 27 13C27 5.8203 20.9558 0 13.5 0C6.04416 0 0 5.8203 0 13C0 20.1797 6.04416 26 13.5 26Z" fill="#29436C"/>
        <path d="M18.1229 8.54868C17.032 7.48769 15.5833 6.83702 14.038 6.71404C12.4928 6.59105 10.9528 7.00385 9.69582 7.87796C8.43882 8.75208 7.54757 10.03 7.18284 11.4811C6.8181 12.9323 7.00389 14.4612 7.70669 15.7921L7.01681 19.0174C7.00965 19.0495 7.00944 19.0827 7.01621 19.1149C7.02298 19.147 7.03656 19.1775 7.05613 19.2044C7.08478 19.2452 7.12569 19.2767 7.17338 19.2945C7.22107 19.3123 7.27327 19.3157 7.32302 19.3042L10.6056 18.555C11.9838 19.2146 13.5603 19.382 15.0547 19.0274C16.549 18.6728 17.8642 17.8192 18.7663 16.6184C19.6683 15.4176 20.0988 13.9476 19.981 12.47C19.8631 10.9923 19.2047 9.60277 18.1229 8.54868ZM17.0994 16.4151C16.3446 17.1399 15.3726 17.6184 14.3205 17.7831C13.2684 17.9477 12.1891 17.7903 11.2348 17.333L10.7772 17.115L8.76476 17.574L8.77071 17.5499L9.18774 15.5993L8.96374 15.1737C8.47612 14.2515 8.30411 13.2043 8.47234 12.1823C8.64057 11.1602 9.14042 10.2156 9.90027 9.48379C10.855 8.56467 12.1498 8.04834 13.4998 8.04834C14.8499 8.04834 16.1446 8.56467 17.0994 9.48379C17.1075 9.49277 17.1163 9.50121 17.1256 9.50904C18.0685 10.4305 18.5949 11.6736 18.59 12.9673C18.5851 14.261 18.0493 15.5003 17.0994 16.4151Z" fill="white"/>
        <path d="M16.9207 14.9843C16.674 15.3583 16.2844 15.8161 15.7947 15.9297C14.9368 16.1293 13.6202 15.9366 11.9818 14.4656L11.9616 14.4484C10.521 13.1622 10.1469 12.0917 10.2375 11.2426C10.2875 10.7607 10.7045 10.3247 11.056 10.0402C11.1116 9.99452 11.1775 9.962 11.2485 9.94524C11.3194 9.92847 11.3934 9.92793 11.4647 9.94365C11.5359 9.95938 11.6023 9.99093 11.6586 10.0358C11.7148 10.0806 11.7594 10.1375 11.7888 10.202L12.319 11.3494C12.3535 11.4237 12.3663 11.5058 12.356 11.5866C12.3457 11.6675 12.3127 11.7441 12.2606 11.8083L11.9926 12.1433C11.935 12.2125 11.9003 12.2967 11.8929 12.385C11.8855 12.4734 11.9056 12.5618 11.9509 12.639C12.101 12.8926 12.4608 13.2655 12.86 13.6108C13.308 14.001 13.8048 14.3578 14.1194 14.4794C14.2036 14.5125 14.2961 14.5206 14.3851 14.5026C14.4741 14.4846 14.5554 14.4414 14.6187 14.3784L14.9296 14.0767C14.9896 14.0197 15.0643 13.9791 15.1459 13.9589C15.2275 13.9388 15.3133 13.9398 15.3943 13.9619L16.6538 14.3062C16.7232 14.3267 16.7869 14.3622 16.8399 14.4101C16.8929 14.4579 16.9339 14.5168 16.9597 14.5823C16.9854 14.6477 16.9953 14.7179 16.9885 14.7876C16.9818 14.8573 16.9585 14.9246 16.9207 14.9843Z" fill="white"/>
    </g>
    <defs>
        <clipPath id="clip0_1_342">
            <rect width="27" height="26" fill="white"/>
        </clipPath>
    </defs>
</svg>
