<svg width="26" height="26" viewBox="0 0 26 26" fill="none" xmlns="http://www.w3.org/2000/svg">
    <g clip-path="url(#clip0_1_350)">
        <path d="M13 26C20.1797 26 26 20.1797 26 13C26 5.8203 20.1797 0 13 0C5.8203 0 0 5.8203 0 13C0 20.1797 5.8203 26 13 26Z" fill="#29436C"/>
        <path d="M19.4558 16.9796C19.1282 17.0254 17.536 16.9796 17.4532 16.9796C17.0415 16.9838 16.6448 16.8266 16.3488 16.5419C16.0119 16.2195 15.7082 15.8642 15.3861 15.529C15.2883 15.4269 15.1831 15.332 15.0713 15.2451C14.8081 15.0455 14.5486 15.0913 14.4253 15.399C14.3287 15.7325 14.2622 16.0739 14.2265 16.4192C14.2207 16.5646 14.1572 16.7019 14.0499 16.8007C13.9426 16.8996 13.8002 16.9521 13.654 16.9467C13.4368 16.9577 13.2196 16.9632 13.0043 16.9577C12.2208 16.9536 11.4495 16.7653 10.7531 16.4082C10.0013 15.9902 9.34605 15.4199 8.8296 14.7341C8.00328 13.6484 7.28917 12.4825 6.69809 11.2541C6.6668 11.1918 6.04649 9.87855 6.03176 9.81811C5.9933 9.73206 5.98963 9.63457 6.02151 9.54589C6.05338 9.45721 6.11836 9.38416 6.20294 9.3419C6.31338 9.29977 8.35838 9.3419 8.39151 9.3419C8.54379 9.34046 8.69255 9.38748 8.81606 9.47612C8.93958 9.56476 9.03139 9.69036 9.07809 9.8346C9.4563 10.794 9.9728 11.6936 10.6114 12.5051C10.7004 12.6144 10.8053 12.7101 10.9225 12.789C10.9527 12.818 10.9901 12.8384 11.0309 12.8482C11.0717 12.858 11.1144 12.8567 11.1546 12.8446C11.1947 12.8325 11.2309 12.8099 11.2593 12.7792C11.2878 12.7484 11.3075 12.7107 11.3164 12.6699C11.3973 12.4051 11.4449 12.1313 11.4581 11.8548C11.4691 11.3054 11.4581 10.939 11.4268 10.3896C11.4379 10.2023 11.3744 10.0183 11.25 9.87732C11.1256 9.73639 10.9504 9.64996 10.7623 9.63678C10.6003 9.60931 10.5782 9.47744 10.6905 9.34556C10.9059 9.07265 11.2041 9.02869 11.528 9.01221C12.0177 8.98474 12.5091 9.01221 13.0006 9.01221H13.1073C13.3231 9.01168 13.5384 9.03316 13.7497 9.07632C13.8733 9.1015 13.9854 9.16575 14.0694 9.25949C14.1533 9.35322 14.2045 9.47143 14.2154 9.59649C14.2402 9.73489 14.2513 9.87537 14.2486 10.0159C14.2357 10.6149 14.2062 11.2138 14.1989 11.8146C14.1945 12.0518 14.2161 12.2889 14.2633 12.5215C14.3351 12.8402 14.5541 12.9208 14.7787 12.6882C15.0585 12.3893 15.3151 12.0697 15.5462 11.7321C15.9618 11.1174 16.3041 10.4567 16.566 9.76316C16.7077 9.40783 16.8163 9.32908 17.201 9.32908H19.3712C19.5007 9.32693 19.6297 9.34422 19.754 9.38036C19.7979 9.392 19.8389 9.41249 19.8745 9.44056C19.9101 9.46862 19.9395 9.50367 19.9609 9.54351C19.9823 9.58336 19.9952 9.62716 19.9989 9.67219C20.0026 9.71722 19.9969 9.76253 19.9823 9.80529C19.8554 10.2648 19.6376 10.6944 19.3417 11.0691C18.9 11.69 18.4361 12.2963 17.9833 12.9007C17.926 12.9798 17.8737 13.0624 17.8268 13.148C17.6575 13.452 17.6704 13.6242 17.9152 13.8806C18.3091 14.2835 18.7306 14.6627 19.1098 15.0766C19.3894 15.3782 19.642 15.7037 19.8645 16.0492C20.1443 16.4961 19.9731 16.9064 19.4558 16.9796Z" fill="white"/>
    </g>
    <defs>
        <clipPath id="clip0_1_350">
            <rect width="26" height="26" fill="white"/>
        </clipPath>
    </defs>
</svg>
