<svg width="" height="" viewBox="0 0 20 20" fill="none" xmlns="http://www.w3.org/2000/svg">
    <path d="M17.112 2.94167C15.4337 1.25999 13.2048 0.228672 10.8275 0.0337397C8.45014 -0.161193 6.08084 0.493094 4.14695 1.87858C2.21306 3.26407 0.841874 5.28956 0.280731 7.58968C-0.280413 9.88981 0.00542421 12.3132 1.08668 14.4226L0.0252924 19.5348C0.0142793 19.5856 0.0139674 19.6382 0.0243763 19.6892C0.0347853 19.7402 0.0556908 19.7886 0.0857858 19.8312C0.129873 19.8959 0.192804 19.9457 0.266176 19.974C0.339548 20.0022 0.419869 20.0076 0.49641 19.9894L5.54672 18.8019C7.66705 19.8474 10.0925 20.1127 12.3915 19.5507C14.6905 18.9886 16.714 17.6356 18.1018 15.7323C19.4897 13.8291 20.1519 11.4991 19.9706 9.15697C19.7894 6.81482 18.7764 4.61243 17.112 2.94167ZM15.5374 15.4101C14.3761 16.559 12.8807 17.3173 11.262 17.5783C9.64331 17.8393 7.98284 17.5899 6.51462 16.865L5.81069 16.5195L2.71451 17.2469L2.72368 17.2087L3.36528 14.1171L3.02065 13.4424C2.27045 11.9807 2.00581 10.321 2.26464 8.70096C2.52346 7.08093 3.29247 5.58374 4.4615 4.42385C5.93041 2.96703 7.9224 2.14864 9.99943 2.14864C12.0765 2.14864 14.0684 2.96703 15.5374 4.42385C15.5499 4.43808 15.5633 4.45145 15.5777 4.46386C17.0284 5.92443 17.8382 7.89474 17.8307 9.94524C17.8231 11.9957 16.9988 13.9601 15.5374 15.4101Z" fill="#E94E1B"/>
    <path d="M15.2624 13.1423C14.8829 13.7351 14.2835 14.4608 13.5301 14.6408C12.2102 14.9573 10.1846 14.6517 7.66399 12.3203L7.63283 12.293C5.41656 10.2543 4.84095 8.55754 4.98027 7.21176C5.05726 6.44794 5.69886 5.75686 6.23964 5.30585C6.32514 5.23346 6.42652 5.18192 6.53568 5.15535C6.64485 5.12878 6.75876 5.12792 6.86832 5.15284C6.97788 5.17776 7.08004 5.22777 7.16664 5.29886C7.25323 5.36995 7.32186 5.46016 7.36702 5.56227L8.18277 7.38089C8.23578 7.49881 8.25543 7.62882 8.2396 7.75698C8.22378 7.88514 8.17308 8.0066 8.09295 8.10834L7.68049 8.63938C7.59199 8.74903 7.53859 8.88244 7.52715 9.02245C7.51572 9.16246 7.54678 9.30267 7.61633 9.42502C7.84731 9.82693 8.40092 10.418 9.01502 10.9654C9.70428 11.5837 10.4687 12.1493 10.9527 12.3421C11.0821 12.3946 11.2245 12.4074 11.3614 12.3789C11.4983 12.3503 11.6235 12.2818 11.7207 12.182L12.1992 11.7038C12.2915 11.6134 12.4063 11.549 12.5319 11.5171C12.6575 11.4851 12.7894 11.4868 12.9141 11.5219L14.8518 12.0675C14.9586 12.1 15.0566 12.1563 15.1382 12.2322C15.2197 12.3081 15.2827 12.4014 15.3224 12.5051C15.362 12.6088 15.3772 12.7202 15.3668 12.8306C15.3564 12.941 15.3207 13.0476 15.2624 13.1423Z" fill="#E94E1B"/>
</svg>
