<svg width="100" height="30" viewBox="0 0 100 30" fill="none" xmlns="http://www.w3.org/2000/svg">
    <g clip-path="url(#clip0_288_2747)">
        <path d="M95.3407 26.1231C97.3025 26.1231 98.6922 25.7552 99.7276 24.9628V21.3684C98.6649 22.1326 97.3843 22.6137 95.5859 22.6137C92.5614 22.6137 91.308 20.1797 91.308 16.3307C91.308 12.2835 92.8339 10.2175 95.6132 10.2175C97.248 10.2175 98.8557 10.8118 99.7004 11.3779V7.64201C98.8012 7.13257 97.2481 6.76465 95.1227 6.76465C89.7004 6.76465 86.8938 10.8118 86.8938 16.4722C86.9211 22.6703 89.6731 26.1231 95.3407 26.1231ZM68.8284 24.4816V20.8873C67.5205 21.8213 65.2862 22.642 63.2426 22.642C60.1363 22.642 58.9647 21.1137 58.7739 18.0005H69.0192V15.6797C69.0192 9.19861 66.2671 6.76465 62.0437 6.76465C56.8666 6.76465 54.4143 10.8684 54.4143 16.5005C54.4143 22.9816 57.4933 26.1231 62.8884 26.1231C65.5859 26.1231 67.575 25.359 68.8284 24.4816ZM29.9456 7.10427V14.4628H24.278V7.10427H20.0273V25.7552H24.278V17.9722H29.9456V25.7552H34.1963V7.10427H29.9456ZM53.3516 22.2458H51.4715V7.10427H39.1009V8.68918C39.1009 13.2458 38.8284 19.1326 37.3298 22.2458H35.9674V30.0005H39.8911V25.7552H49.4006V30.0005H53.3243V22.2458H53.3516ZM82.3707 25.7552H87.1936L80.3816 15.708L86.3761 7.10427H82.0982L76.1036 15.708V7.10427H71.853V25.7552H76.1036V16.5854L82.3707 25.7552ZM61.9347 10.2175C64.0328 10.2175 64.6867 12.0288 64.6867 14.3779V14.7458H58.7739C58.8829 11.7741 59.9184 10.2175 61.9347 10.2175ZM47.2208 22.2458H41.2263C42.3979 19.4439 42.7249 14.3496 42.7249 11.1231V10.5571H47.2208V22.2458Z" fill="#3E3E3E"/>
        <path d="M16.485 25.7547H12.1526V3.48113H10.218C6.67575 3.48113 4.82289 5.32075 4.82289 8.06604C4.82289 11.1792 6.10354 12.6226 8.74659 14.4623L10.9264 15.9906L4.6594 25.7547H0L5.64033 17.0377C2.39782 14.6321 0.572207 12.283 0.572207 8.32075C0.572207 3.36792 3.89646 0 10.1907 0H16.4578V25.7547H16.485Z" fill="#FC3F1D"/>
    </g>
    <defs>
        <clipPath id="clip0_288_2747">
            <rect width="100" height="30" fill="white"/>
        </clipPath>
    </defs>
</svg>
